<svg width="150" height="150" viewBox="0 0 150 150" fill="none" xmlns="http://www.w3.org/2000/svg">
<rect width="150" height="150" fill="white"/>
<path d="M62.6535 65.933V86.3632H68.7826V60.8254H57.5459V65.933H62.6535Z" fill="black"/>
<path d="M88.1913 60.8254H75.9331L88.1913 80.0413V60.8254Z" fill="black"/>
<path d="M75.9332 91.4708H88.1914L75.9332 72.3703V91.4708Z" fill="black"/>
<path d="M35.3727 78.8706C35.3727 83.4685 38.438 86.4855 42.3656 86.4855C46.3412 86.4855 49.2623 83.2767 49.2623 78.9183C49.2623 74.7516 46.5805 71.3986 42.3656 71.3986C38.2949 71.3986 35.3727 74.4162 35.3727 78.8706ZM35.1913 68.6051C37.4895 66.3059 40.1245 65.1568 43.1898 65.1568C49.7506 65.1568 55.2114 70.6168 55.2114 78.5671C55.2114 86.3743 49.5111 91.9301 43.0458 91.9301C39.8364 91.9301 37.4895 90.7806 35.1913 88.5772V96.8689H29V65.8271H35.1913V68.6051Z" fill="black"/>
<path d="M101.786 78.9224C101.786 83.2785 104.658 86.4855 108.631 86.4855C112.557 86.4855 115.621 83.5179 115.621 78.8747C115.621 74.4229 112.652 71.4068 108.631 71.4068C104.419 71.4068 101.786 74.758 101.786 78.9224ZM115.802 88.572C113.553 90.7741 111.16 91.923 107.952 91.923C101.49 91.923 95.8416 86.3704 95.8416 78.5674C95.8416 70.6214 101.202 65.1644 107.809 65.1644C110.873 65.1644 113.505 66.313 115.802 68.6109V65.8343H122V91.6607H115.802V88.572Z" fill="black"/>
<path d="M62.8959 53.0227C62.8959 54.6196 61.6012 55.9142 60.0043 55.9142C58.4075 55.9142 57.1129 54.6196 57.1129 53.0227C57.1129 51.4257 58.4075 50.1311 60.0043 50.1311C61.6012 50.1311 62.8959 51.4257 62.8959 53.0227Z" fill="black"/>
</svg>
