<svg width="150" height="150" viewBox="0 0 150 150" fill="none" xmlns="http://www.w3.org/2000/svg">
<rect width="150" height="150" fill="white"/>
<path fill-rule="evenodd" clip-rule="evenodd" d="M71.5171 38.6793L74.013 36.8236L76.5093 38.6793L75.5494 35.736L78.0442 33.9441H74.9732L74.013 31L73.055 33.9441H69.9822L72.4769 35.736L71.5171 38.6793Z" fill="#FBC707"/>
<path fill-rule="evenodd" clip-rule="evenodd" d="M85.5873 42.5497C86.4179 41.9315 87.2514 41.3122 88.0817 40.694C88.9153 41.3122 89.7459 41.9315 90.5794 42.5497C90.2584 41.5677 89.9377 40.5875 89.6181 39.6056C90.4502 39.0087 91.2822 38.4117 92.1143 37.8137H89.0433C88.7223 36.8326 88.4027 35.8515 88.0817 34.8704C87.7639 35.8515 87.4429 36.8326 87.1236 37.8137H84.0509C84.883 38.4117 85.715 39.0087 86.5471 39.6056C86.2275 40.5875 85.9065 41.5677 85.5873 42.5497Z" fill="#FBC707"/>
<path fill-rule="evenodd" clip-rule="evenodd" d="M95.7816 53.0027C96.6122 52.3846 97.4443 51.7661 98.2761 51.1471C99.1082 51.7661 99.9402 52.3846 100.772 53.0027C100.453 52.0222 100.132 51.0406 99.8125 50.0586C100.645 49.4617 101.475 48.8645 102.307 48.2676H99.2362C98.9152 47.2856 98.5971 46.3054 98.2761 45.3234C97.9554 46.3054 97.6358 47.2856 97.3151 48.2676H94.2438C95.0758 48.8645 95.9079 49.4617 96.74 50.0586C96.4204 51.0406 96.0994 52.0222 95.7816 53.0027Z" fill="#FBC707"/>
<path fill-rule="evenodd" clip-rule="evenodd" d="M99.4764 67.1345C100.308 66.5154 101.141 65.897 101.973 65.2788C102.805 65.897 103.636 66.5154 104.469 67.1345C104.149 66.1534 103.828 65.1714 103.509 64.1904C104.341 63.5935 105.171 62.9962 106.005 62.3985H102.932C102.611 61.4174 102.293 60.4363 101.973 59.4546C101.653 60.4363 101.332 61.4174 101.013 62.3985H97.94C98.7721 62.9962 99.6056 63.5935 100.436 64.1904C100.117 65.1714 99.7974 66.1534 99.4764 67.1345Z" fill="#FBC707"/>
<path fill-rule="evenodd" clip-rule="evenodd" d="M85.5873 91.7192C86.4193 91.1002 87.2514 90.4826 88.0832 89.8636C88.9153 90.4826 89.7473 91.1002 90.5794 91.7192C90.2601 90.7388 89.9391 89.7562 89.6181 88.776C90.4516 88.1788 91.2822 87.581 92.1158 86.9832H89.0433C88.7223 86.003 88.4027 85.0211 88.0832 84.04C87.7639 85.0211 87.4429 86.003 87.1236 86.9832H84.0509C84.8829 87.581 85.715 88.1788 86.5471 88.776C86.2275 89.7562 85.9083 90.7388 85.5873 91.7192Z" fill="#FBC707"/>
<path fill-rule="evenodd" clip-rule="evenodd" d="M71.5171 95.589C72.3492 94.9705 73.1812 94.3515 74.013 93.733C74.8436 94.3515 75.6772 94.9705 76.5093 95.589C76.1882 94.6079 75.869 93.6268 75.5494 92.6448C76.38 92.0485 77.2136 91.4507 78.0442 90.8529H74.9732C74.6536 89.8719 74.3326 88.8917 74.013 87.9097C73.6938 88.8917 73.3727 89.8719 73.055 90.8529H69.9822C70.8128 91.4507 71.6463 92.0485 72.4769 92.6448C72.1574 93.6268 71.8364 94.6079 71.5171 95.589Z" fill="#FBC707"/>
<path fill-rule="evenodd" clip-rule="evenodd" d="M57.4469 91.7192C58.279 91.1002 59.111 90.4826 59.9431 89.8636C60.7752 90.4826 61.607 91.1002 62.439 91.7192C62.1183 90.7388 61.8002 89.7562 61.4795 88.776C62.3113 88.1788 63.1419 87.581 63.9739 86.9832H60.903C60.5834 86.003 60.2638 85.0211 59.9431 84.04C59.6236 85.0211 59.3028 86.003 58.9833 86.9832H55.912C56.7441 87.581 57.5761 88.1788 58.4067 88.776C58.0872 89.7562 57.7679 90.7388 57.4469 91.7192Z" fill="#FBC707"/>
<path fill-rule="evenodd" clip-rule="evenodd" d="M47.2525 81.2662C48.0861 80.6472 48.9196 80.0296 49.7502 79.4106C50.5823 80.0296 51.4144 80.6472 52.2461 81.2662C51.9254 80.2852 51.6059 79.3041 51.2866 78.3221C52.1169 77.7252 52.9505 77.1283 53.7825 76.5302H50.7101C50.3905 75.55 50.0695 74.5681 49.7502 73.587C49.4307 74.5681 49.1099 75.55 48.7904 76.5302H45.7194C46.5497 77.1283 47.3818 77.7252 48.2138 78.3221C47.8943 79.3041 47.575 80.2852 47.2525 81.2662Z" fill="#FBC707"/>
<path fill-rule="evenodd" clip-rule="evenodd" d="M43.5578 67.1345C44.3899 66.5154 45.2202 65.897 46.0522 65.2788C46.8858 65.897 47.7179 66.5154 48.5499 67.1345C48.2289 66.1534 47.9097 65.1714 47.5886 64.1912C48.4207 63.5935 49.2528 62.9962 50.0848 62.3993H47.0121C46.6928 61.4174 46.3733 60.4363 46.0522 59.4552C45.733 60.4363 45.4134 61.4174 45.0942 62.3993H42.0214C42.8535 62.9962 43.6856 63.5935 44.5176 64.1912C44.1966 65.1714 43.877 66.1534 43.5578 67.1345Z" fill="#FBC707"/>
<path fill-rule="evenodd" clip-rule="evenodd" d="M107.815 50.8063C107.815 50.8063 98.284 57.3242 81.3327 57.4215C64.6402 57.5174 65.7901 50.8558 52.2311 50.7425L53.4037 54.5984L49.7836 52.0193L46.0888 54.568L47.0014 51.6513C41.7204 53.5518 37.8383 57.8004 37.8383 57.8004L38.7981 65.9214C38.7981 65.9214 40.2053 64.7615 42.4442 63.4685L40.0669 61.666L44.5982 61.6586C44.7899 60.9534 45.3863 59.037 45.3863 59.037L46.0903 56.8565C46.0903 56.8565 46.9849 59.6667 47.4319 60.9443C49.9267 59.9063 52.7421 59.1214 55.6202 59.106C64.1277 59.0568 67.646 65.6278 83.8912 65.5343C89.1999 65.5039 93.9973 64.5797 97.963 63.4694C96.8768 62.6435 95.5978 61.7551 95.5978 61.7551C95.5978 61.7551 99.6909 61.7315 100.394 61.7277C100.651 61.0228 101.226 59.2911 101.226 59.2911L101.928 57.0474C101.928 57.0474 103.144 60.8159 103.401 61.6465C107.303 60.088 109.606 58.6667 109.606 58.6667L107.815 50.8063Z" fill="#8A2432"/>
<path fill-rule="evenodd" clip-rule="evenodd" d="M47.2525 53.0027C48.0861 52.3846 48.9196 51.7661 49.7502 51.1477C50.5823 51.7661 51.4144 52.3846 52.2461 53.0027C51.9254 52.0222 51.6059 51.0406 51.2866 50.0595C52.1169 49.4632 52.9505 48.8654 53.7825 48.2676H50.7101C50.3905 47.2865 50.0695 46.3054 49.7502 45.3243C49.4307 46.3054 49.1099 47.2865 48.7904 48.2676H45.7194C46.5497 48.8654 47.3818 49.4632 48.2138 50.0595C47.8943 51.0406 47.575 52.0222 47.2525 53.0027Z" fill="#FBC707"/>
<path fill-rule="evenodd" clip-rule="evenodd" d="M57.4469 42.5497L59.9431 40.694L62.439 42.5497L61.4795 39.6064L63.9739 37.8145H60.903L59.9431 34.8704L58.9833 37.8145H55.912L58.4067 39.6064L57.4469 42.5497Z" fill="#FBC707"/>
<path fill-rule="evenodd" clip-rule="evenodd" d="M110.437 62.1818C110.437 62.1818 109.157 63.7888 104.68 65.4789C105.127 66.8842 105.832 69.1196 105.832 69.1196C105.832 69.1196 102.824 66.9613 102.058 66.3891C101.928 66.4546 101.802 66.4546 101.673 66.5193C100.713 67.2295 98.0284 69.1645 98.0284 69.1645C98.0284 69.1645 98.2839 68.2678 98.6034 67.3056C95.4044 68.0273 91.3113 68.6915 86.2581 69.1683C68.8612 70.6764 66.2387 62.692 55.8756 62.7513C53.3735 62.7661 50.7433 63.1393 48.5212 64.2656L49.6589 68.8343L46.0418 66.1428L42.1889 68.9742C42.1889 68.9742 42.4444 68.1406 42.7622 67.1787C40.718 68.6623 39.6304 69.9493 39.6304 69.9493L41.0358 77.2353C41.0358 77.2353 48.4557 70.2178 55.4923 70.1774C65.4052 70.1205 72.8251 77.0535 85.5552 76.9798C89.4205 76.9576 93.3478 76.2648 96.9803 75.3218L98.2762 71.3412L99.3653 74.6806C106.671 72.488 112.164 69.5956 112.164 69.5956L110.437 62.1818Z" fill="#8A2432"/>
<path fill-rule="evenodd" clip-rule="evenodd" d="M95.7816 81.2662C96.6137 80.6472 97.4443 80.0296 98.2761 79.4106C99.1082 80.0296 99.9402 80.6472 100.772 81.2662C100.453 80.2852 100.132 79.3041 99.8125 78.3221C100.646 77.7252 101.477 77.1283 102.309 76.5302H99.2377C98.9167 75.55 98.5971 74.5681 98.2761 73.587C97.9568 74.5681 97.6358 75.55 97.3165 76.5302H94.2453C95.0759 77.1283 95.9094 77.7252 96.74 78.3221C96.4219 79.3041 96.1012 80.2852 95.7816 81.2662Z" fill="#FBC707"/>
<path d="M54.0229 109.188L55.5183 109.023C55.544 109.231 55.6003 109.38 55.6945 109.469C55.7874 109.559 55.9258 109.603 56.1067 109.603C56.3047 109.603 56.4672 109.552 56.595 109.452C56.6924 109.376 56.7517 109.283 56.7715 109.17C56.7927 109.043 56.7549 108.946 56.6558 108.876C56.5844 108.828 56.3823 108.768 56.0536 108.694C55.5593 108.587 55.2185 108.489 55.0359 108.399C54.8518 108.306 54.7104 108.153 54.6131 107.937C54.5128 107.722 54.4883 107.475 54.5369 107.197C54.5918 106.895 54.7104 106.633 54.899 106.415C55.0846 106.194 55.3174 106.031 55.5956 105.923C55.8727 105.815 56.23 105.761 56.6649 105.761C57.1258 105.761 57.4575 105.803 57.6628 105.886C57.8667 105.97 58.0263 106.1 58.1405 106.276C58.2577 106.451 58.3367 106.689 58.3825 106.989L56.9497 107.154C56.9373 107.007 56.8992 106.899 56.8249 106.83C56.726 106.736 56.5935 106.692 56.4277 106.692C56.2619 106.692 56.1326 106.726 56.0444 106.796C55.9562 106.868 55.9046 106.954 55.8848 107.054C55.865 107.167 55.8998 107.252 55.9851 107.31C56.0733 107.368 56.2743 107.419 56.5906 107.466C57.0683 107.532 57.4179 107.624 57.6354 107.743C57.8576 107.86 58.0098 108.028 58.098 108.25C58.1863 108.468 58.2075 108.709 58.1603 108.971C58.1131 109.237 58.0007 109.496 57.821 109.746C57.6431 109.997 57.3967 110.197 57.0804 110.344C56.7655 110.493 56.3578 110.567 55.8588 110.567C55.1545 110.567 54.6739 110.448 54.4183 110.209C54.1613 109.969 54.0291 109.629 54.0229 109.188ZM52.1124 108.279C51.895 108.365 51.6684 108.443 51.437 108.509C51.1207 108.604 50.9139 108.698 50.818 108.79C50.7177 108.885 50.6584 108.994 50.6353 109.115C50.6112 109.253 50.6324 109.365 50.6964 109.454C50.7649 109.54 50.8743 109.586 51.0325 109.586C51.1969 109.586 51.358 109.538 51.5176 109.444C51.6757 109.348 51.7976 109.231 51.8796 109.095C51.9634 108.959 52.0242 108.78 52.0623 108.561L52.1124 108.279ZM50.9944 107.352L49.6147 107.176C49.7183 106.882 49.8369 106.65 49.9676 106.481C50.0969 106.313 50.2674 106.167 50.4787 106.043C50.6294 105.953 50.8301 105.883 51.075 105.834C51.3199 105.786 51.5816 105.761 51.8569 105.761C52.301 105.761 52.6524 105.79 52.9094 105.849C53.1682 105.908 53.3703 106.032 53.5149 106.22C53.6199 106.35 53.6869 106.533 53.7155 106.771C53.7462 107.009 53.7429 107.236 53.7034 107.453L53.3461 109.483C53.3065 109.697 53.2897 109.868 53.2897 109.991C53.2912 110.113 53.3142 110.269 53.3582 110.46H51.9711C51.936 110.342 51.9162 110.251 51.91 110.19C51.9026 110.128 51.9041 110.03 51.9115 109.897C51.6772 110.121 51.4568 110.278 51.2485 110.372C50.9655 110.5 50.6492 110.563 50.304 110.563C49.8446 110.563 49.5174 110.436 49.3226 110.182C49.1297 109.929 49.0671 109.616 49.1326 109.245C49.1934 108.894 49.3303 108.607 49.5418 108.384C49.7546 108.157 50.0986 107.99 50.5822 107.881C51.1603 107.748 51.5359 107.655 51.7094 107.603C51.8843 107.549 52.0714 107.478 52.2691 107.392C52.3072 107.176 52.2965 107.025 52.2387 106.938C52.1779 106.851 52.0546 106.808 51.8646 106.808C51.6241 106.808 51.4341 106.855 51.2957 106.946C51.1892 107.019 51.0889 107.154 50.9944 107.352ZM46.0309 108.175C45.9672 108.538 45.9822 108.809 46.0796 108.984C46.1755 109.16 46.323 109.249 46.5192 109.249C46.6913 109.249 46.8494 109.165 46.9969 108.995C47.143 108.826 47.2525 108.54 47.3224 108.137C47.3894 107.764 47.3773 107.491 47.2861 107.317C47.1979 107.142 47.0624 107.054 46.889 107.054C46.7004 107.054 46.5269 107.142 46.3717 107.319C46.2136 107.494 46.1011 107.781 46.0309 108.175ZM43.8345 112.209L44.9572 105.865H46.3398L46.2198 106.545C46.4632 106.258 46.673 106.064 46.8494 105.964C47.0896 105.828 47.3392 105.761 47.6009 105.761C48.1164 105.761 48.474 105.996 48.6747 106.466C48.8709 106.936 48.9089 107.519 48.7874 108.211C48.6534 108.974 48.3964 109.557 48.0176 109.961C47.639 110.362 47.2144 110.563 46.7458 110.563C46.5163 110.563 46.3156 110.517 46.1466 110.426C45.9749 110.333 45.8303 110.195 45.7161 110.014L45.3284 112.209H43.8345ZM40.8806 108.171C40.8077 108.581 40.8243 108.883 40.9293 109.079C41.0343 109.275 41.191 109.374 41.4023 109.374C41.6153 109.374 41.8071 109.277 41.9788 109.083C42.1494 108.889 42.2724 108.581 42.3485 108.153C42.4185 107.756 42.4017 107.458 42.2984 107.264C42.1948 107.07 42.0411 106.973 41.8375 106.973C41.623 106.973 41.4268 107.072 41.2518 107.268C41.0768 107.466 40.952 107.768 40.8806 108.171ZM39.3991 108.175C39.5239 107.475 39.8234 106.896 40.3011 106.443C40.7788 105.988 41.3551 105.761 42.0305 105.761C42.8018 105.761 43.3388 106.028 43.6397 106.561C43.8802 106.99 43.9457 107.521 43.8345 108.15C43.71 108.856 43.4087 109.435 42.9372 109.887C42.4642 110.338 41.8785 110.563 41.1848 110.563C40.5643 110.563 40.0972 110.376 39.7809 110.001C39.3929 109.537 39.2652 108.929 39.3991 108.175ZM36.5819 105.865H37.9663L37.8323 106.617C38.0241 106.292 38.2006 106.068 38.3631 105.944C38.526 105.822 38.7131 105.761 38.9214 105.761C39.1406 105.761 39.3625 105.841 39.5938 106.002L38.9137 107.258C38.7556 107.171 38.6249 107.128 38.5245 107.128C38.3313 107.128 38.1625 107.224 38.0224 107.413C37.8217 107.682 37.6574 108.184 37.5281 108.919L37.2543 110.46H35.7681L36.5819 105.865ZM34.1432 105.865H35.6238L34.8088 110.46H33.3306L34.1432 105.865ZM34.4527 104.117H35.9324L35.7212 105.316H34.2406L34.4527 104.117ZM29.1212 104.117H33.5306L33.2913 105.471H30.531L30.3522 106.479H32.9125L32.6835 107.774H30.1241L29.9029 109.023H32.7431L32.4879 110.46H28L29.1212 104.117Z" fill="#231F20"/>
<path d="M119.337 104.204H121.686L121.52 105.142H119.17L119.337 104.204ZM120.376 108.279C120.159 108.365 119.932 108.443 119.701 108.509C119.385 108.604 119.178 108.698 119.082 108.79C118.982 108.885 118.92 108.994 118.901 109.115C118.875 109.253 118.895 109.365 118.962 109.454C119.028 109.54 119.138 109.586 119.296 109.586C119.461 109.586 119.622 109.538 119.78 109.444C119.938 109.348 120.06 109.231 120.143 109.095C120.229 108.959 120.288 108.78 120.326 108.561L120.376 108.279ZM119.258 107.352L117.879 107.176C117.984 106.882 118.101 106.65 118.231 106.481C118.361 106.313 118.531 106.167 118.743 106.043C118.893 105.953 119.094 105.883 119.339 105.834C119.584 105.786 119.845 105.761 120.122 105.761C120.563 105.761 120.915 105.79 121.173 105.849C121.432 105.908 121.634 106.032 121.78 106.22C121.882 106.35 121.951 106.533 121.98 106.771C122.01 107.009 122.007 107.236 121.967 107.453L121.61 109.483C121.57 109.697 121.554 109.868 121.555 109.991C121.555 110.113 121.578 110.269 121.622 110.46H120.235C120.2 110.342 120.18 110.251 120.174 110.19C120.168 110.128 120.168 110.03 120.176 109.897C119.941 110.121 119.721 110.278 119.512 110.372C119.229 110.5 118.915 110.563 118.568 110.563C118.108 110.563 117.781 110.436 117.586 110.182C117.394 109.929 117.329 109.616 117.395 109.245C117.457 108.894 117.594 108.607 117.806 108.384C118.018 108.157 118.364 107.99 118.845 107.881C119.424 107.748 119.8 107.655 119.975 107.602C120.148 107.549 120.335 107.478 120.533 107.392C120.573 107.176 120.562 107.025 120.503 106.938C120.442 106.851 120.318 106.808 120.128 106.808C119.888 106.808 119.698 106.855 119.56 106.946C119.453 107.019 119.351 107.154 119.258 107.352ZM115.755 105.865H117.238L116.449 110.321C116.35 110.89 116.243 111.291 116.132 111.529C116.021 111.766 115.86 111.958 115.647 112.104C115.436 112.252 115.156 112.325 114.809 112.325C114.523 112.325 114.178 112.275 113.772 112.173L114.222 110.892C114.333 110.921 114.418 110.935 114.474 110.935C114.601 110.935 114.703 110.886 114.788 110.782C114.871 110.68 114.94 110.476 114.995 110.171L115.755 105.865ZM116.065 104.117H117.547L117.334 105.327H115.851L116.065 104.117ZM113.276 105.865H114.754L113.942 110.46H112.462L113.276 105.865ZM113.585 104.117H115.065L114.85 105.316H113.372L113.585 104.117ZM108.24 105.865H109.779L110.012 108.776L111.3 105.865H112.792L110.342 110.46H109.032L108.24 105.865ZM107.47 104.117L107.16 105.865H107.973L107.746 107.15H106.933L106.644 108.781C106.609 108.978 106.603 109.107 106.623 109.17C106.654 109.268 106.729 109.318 106.851 109.318C106.959 109.318 107.12 109.28 107.328 109.205L107.222 110.421C106.84 110.516 106.49 110.563 106.174 110.563C105.806 110.563 105.543 110.506 105.389 110.395C105.235 110.283 105.136 110.111 105.094 109.882C105.05 109.654 105.074 109.281 105.165 108.768L105.453 107.15H104.907L105.133 105.865H105.678L105.829 105.021L107.47 104.117ZM102.745 108.279C102.528 108.365 102.301 108.443 102.07 108.509C101.752 108.604 101.547 108.698 101.451 108.79C101.35 108.885 101.29 108.994 101.27 109.115C101.244 109.253 101.265 109.365 101.329 109.454C101.396 109.54 101.507 109.586 101.665 109.586C101.83 109.586 101.991 109.538 102.149 109.444C102.309 109.348 102.429 109.231 102.512 109.095C102.598 108.959 102.657 108.78 102.694 108.561L102.745 108.279ZM101.627 107.352L100.247 107.176C100.353 106.882 100.47 106.65 100.6 106.481C100.73 106.313 100.9 106.167 101.112 106.043C101.262 105.953 101.463 105.883 101.708 105.834C101.953 105.786 102.214 105.761 102.49 105.761C102.932 105.761 103.285 105.79 103.542 105.849C103.801 105.908 104.003 106.032 104.148 106.22C104.251 106.35 104.318 106.533 104.349 106.771C104.379 107.009 104.374 107.236 104.336 107.453L103.979 109.483C103.939 109.697 103.922 109.868 103.922 109.991C103.924 110.113 103.947 110.269 103.991 110.46H102.604C102.569 110.342 102.547 110.251 102.541 110.19C102.537 110.128 102.537 110.03 102.543 109.897C102.31 110.121 102.09 110.278 101.881 110.372C101.598 110.5 101.283 110.563 100.937 110.563C100.477 110.563 100.15 110.436 99.9557 110.182C99.7624 109.929 99.6984 109.616 99.7639 109.245C99.8261 108.894 99.9616 108.607 100.175 108.384C100.388 108.157 100.733 107.99 101.214 107.881C101.793 107.748 102.169 107.655 102.344 107.602C102.517 107.549 102.704 107.478 102.902 107.392C102.94 107.176 102.931 107.025 102.871 106.938C102.811 106.851 102.687 106.808 102.497 106.808C102.257 106.808 102.067 106.855 101.928 106.946C101.822 107.019 101.72 107.154 101.627 107.352ZM95.9901 104.117H97.6359L96.7903 108.898H99.3579L99.0808 110.46H94.8659L95.9901 104.117ZM90.3423 108.279C90.1245 108.365 89.8979 108.443 89.6669 108.509C89.3506 108.604 89.1437 108.698 89.0478 108.79C88.9472 108.885 88.8879 108.994 88.8667 109.115C88.8425 109.253 88.8622 109.365 88.9274 109.454C88.9944 109.54 89.1054 109.586 89.2638 109.586C89.4279 109.586 89.5893 109.538 89.7474 109.444C89.9056 109.348 90.0257 109.231 90.1109 109.095C90.1947 108.959 90.254 108.78 90.2921 108.561L90.3423 108.279ZM89.2258 107.352L87.8446 107.176C87.9511 106.882 88.0682 106.65 88.1975 106.481C88.3282 106.313 88.4987 106.167 88.7085 106.043C88.859 105.953 89.0599 105.883 89.3063 105.834C89.5512 105.786 89.8115 105.761 90.0882 105.761C90.5308 105.761 90.8822 105.79 91.1392 105.849C91.3977 105.908 91.6016 106.032 91.7462 106.22C91.8497 106.35 91.9164 106.533 91.9471 106.771C91.9772 107.009 91.9728 107.236 91.9347 107.453L91.5759 109.483C91.5379 109.697 91.5196 109.868 91.521 109.991C91.521 110.113 91.5438 110.269 91.5895 110.46H90.2021C90.1673 110.342 90.1475 110.251 90.1413 110.19C90.134 110.128 90.1354 110.03 90.1413 109.897C89.9088 110.121 89.6881 110.278 89.4783 110.372C89.1954 110.5 88.8805 110.563 88.535 110.563C88.0741 110.563 87.7472 110.436 87.5525 110.182C87.3592 109.929 87.2969 109.616 87.3624 109.245C87.4247 108.894 87.5601 108.607 87.7732 108.384C87.9844 108.157 88.3297 107.99 88.8121 107.881C89.3916 107.748 89.7672 107.655 89.9407 107.602C90.1142 107.549 90.3013 107.478 90.5004 107.392C90.5385 107.176 90.5279 107.025 90.4683 106.938C90.4093 106.851 90.2844 106.808 90.0959 106.808C89.8539 106.808 89.6636 106.855 89.527 106.946C89.419 107.019 89.3184 107.154 89.2258 107.352ZM84.2655 108.15C84.1956 108.544 84.2076 108.83 84.3003 109.008C84.3932 109.185 84.5361 109.274 84.7278 109.274C84.9043 109.274 85.0686 109.187 85.2191 109.012C85.3696 108.838 85.4808 108.544 85.5552 108.132C85.6192 107.769 85.6071 107.502 85.5204 107.332C85.4322 107.161 85.3059 107.076 85.1386 107.076C84.9376 107.076 84.7582 107.165 84.5986 107.342C84.4405 107.519 84.3307 107.788 84.2655 108.15ZM83.4971 104.117H84.9896L84.6001 106.314C84.781 106.129 84.9742 105.993 85.1781 105.9C85.3802 105.808 85.5965 105.761 85.8261 105.761C86.2931 105.761 86.6475 105.963 86.8833 106.364C87.1205 106.767 87.1707 107.345 87.0385 108.098C86.9502 108.599 86.7995 109.041 86.5926 109.423C86.3858 109.806 86.1394 110.091 85.8579 110.28C85.5782 110.469 85.2861 110.563 84.9819 110.563C84.7216 110.563 84.498 110.496 84.305 110.366C84.1604 110.26 84.0206 110.066 83.8775 109.78L83.7589 110.46H82.3747L83.4971 104.117ZM80.6162 104.204H82.9663L82.8005 105.142H80.4506L80.6162 104.204ZM80.7578 105.865H82.2363L81.4255 110.46H79.9455L80.7578 105.865ZM79.4952 104.117L79.1866 105.865H79.9986L79.772 107.15H78.9582L78.6693 108.781C78.6357 108.978 78.6283 109.107 78.6481 109.17C78.68 109.268 78.7543 109.318 78.8762 109.318C78.9856 109.318 79.1453 109.28 79.3539 109.205L79.2488 110.421C78.8656 110.516 78.5156 110.563 78.1993 110.563C77.8311 110.563 77.5694 110.506 77.4159 110.395C77.2607 110.283 77.1619 110.111 77.1194 109.882C77.0751 109.654 77.0996 109.281 77.1923 108.768L77.4782 107.15H76.9323L77.1589 105.865H77.7033L77.8541 105.021L79.4952 104.117ZM72.0083 109.188L73.5067 109.023C73.5311 109.231 73.5887 109.38 73.6831 109.469C73.7743 109.559 73.9127 109.603 74.0938 109.603C74.293 109.603 74.4559 109.552 74.5836 109.452C74.6795 109.376 74.7374 109.283 74.7586 109.17C74.7813 109.043 74.7433 108.946 74.6429 108.876C74.5715 108.828 74.3706 108.768 74.0407 108.694C73.5477 108.587 73.2072 108.489 73.0245 108.399C72.8389 108.306 72.6991 108.153 72.6002 107.937C72.5011 107.722 72.4769 107.475 72.5256 107.197C72.5787 106.895 72.6991 106.633 72.8861 106.415C73.0732 106.194 73.3042 106.031 73.5828 105.923C73.861 105.815 74.2172 105.761 74.6536 105.761C75.1144 105.761 75.4461 105.803 75.65 105.886C75.8553 105.97 76.015 106.1 76.1292 106.276C76.2445 106.451 76.3236 106.689 76.3693 106.989L74.938 107.154C74.9259 107.007 74.8864 106.899 74.8132 106.83C74.7129 106.736 74.5804 106.692 74.4163 106.692C74.2505 106.692 74.1213 106.726 74.033 106.796C73.9433 106.868 73.8899 106.954 73.8731 107.054C73.8536 107.167 73.887 107.252 73.9737 107.31C74.0587 107.368 74.2626 107.419 74.5774 107.466C75.0566 107.532 75.4066 107.624 75.624 107.743C75.8447 107.86 75.9982 108.028 76.0849 108.25C76.1746 108.468 76.1961 108.709 76.1489 108.971C76.1017 109.237 75.989 109.496 75.8096 109.746C75.6317 109.997 75.3838 110.197 75.0687 110.344C74.7524 110.493 74.3449 110.567 73.8474 110.567C73.1431 110.567 72.6625 110.448 72.4055 110.209C72.1482 109.969 72.016 109.629 72.0083 109.188ZM71.1506 110.46H69.7694L69.9001 109.716C69.6402 110.021 69.395 110.239 69.1639 110.368C68.9297 110.498 68.662 110.563 68.3564 110.563C67.9501 110.563 67.6565 110.418 67.4756 110.129C67.2977 109.839 67.2611 109.392 67.3676 108.79L67.8831 105.865H69.3693L68.922 108.393C68.8718 108.68 68.881 108.885 68.948 109.007C69.0179 109.128 69.1321 109.188 69.2932 109.188C69.4711 109.188 69.6293 109.107 69.7709 108.946C69.9122 108.784 70.0187 108.494 70.0934 108.076L70.4843 105.865H71.9626L71.1506 110.46ZM62.31 104.117H63.954L63.5297 106.514L65.6793 104.117H67.8666L65.5043 106.509L66.8321 110.46H64.8044L64.1444 107.85L63.1069 108.911L62.8331 110.46H61.1873L62.31 104.117Z" fill="#231F20"/>
<path d="M106.898 116.851C106.721 116.922 106.467 116.983 106.136 117.033C105.943 117.061 105.806 117.093 105.725 117.13C105.643 117.167 105.576 117.218 105.523 117.284C105.469 117.352 105.436 117.427 105.419 117.515C105.397 117.65 105.425 117.758 105.506 117.839C105.585 117.92 105.71 117.961 105.877 117.961C106.038 117.961 106.189 117.924 106.332 117.851C106.475 117.777 106.589 117.681 106.677 117.559C106.761 117.437 106.826 117.261 106.866 117.027L106.898 116.851ZM106.744 117.922C106.571 118.061 106.397 118.163 106.222 118.231C106.049 118.301 105.877 118.336 105.701 118.336C105.425 118.336 105.22 118.263 105.083 118.117C104.946 117.972 104.899 117.775 104.942 117.529C104.97 117.366 105.035 117.221 105.133 117.093C105.234 116.968 105.356 116.869 105.502 116.799C105.646 116.727 105.859 116.675 106.136 116.641C106.505 116.595 106.784 116.54 106.965 116.475L106.989 116.353C107.023 116.159 107.007 116.023 106.942 115.944C106.852 115.831 106.692 115.775 106.461 115.775C106.255 115.775 106.09 115.812 105.975 115.887C105.857 115.962 105.757 116.105 105.672 116.314L105.243 116.249C105.36 115.944 105.526 115.725 105.742 115.586C105.958 115.448 106.244 115.378 106.597 115.378C106.875 115.378 107.085 115.424 107.225 115.515C107.368 115.607 107.447 115.719 107.464 115.855C107.481 115.99 107.467 116.187 107.421 116.446L107.309 117.086C107.228 117.534 107.188 117.816 107.187 117.932C107.185 118.049 107.203 118.162 107.242 118.272H106.773C106.744 118.174 106.735 118.058 106.744 117.922ZM103.831 118.272L104.332 115.442H104.777L104.277 118.272H103.831ZM104.426 114.917L104.522 114.365H104.968L104.87 114.917H104.426ZM102.026 118.272L101.524 115.442H101.997L102.263 117.138C102.293 117.329 102.316 117.519 102.331 117.707C102.397 117.557 102.482 117.379 102.59 117.168L103.485 115.442H103.944L102.444 118.272H102.026ZM100.944 117.843L100.93 118.266C100.801 118.295 100.687 118.309 100.59 118.309C100.433 118.309 100.313 118.282 100.228 118.228C100.143 118.174 100.091 118.1 100.071 118.005C100.053 117.912 100.068 117.723 100.118 117.443L100.406 115.814H100.08L100.146 115.442H100.473L100.596 114.74L101.093 114.453L100.918 115.442H101.369L101.303 115.814H100.851L100.559 117.469C100.532 117.623 100.526 117.722 100.546 117.766C100.573 117.83 100.638 117.862 100.745 117.862C100.795 117.862 100.862 117.855 100.944 117.843ZM98.979 116.851C98.801 116.922 98.5485 116.983 98.2153 117.033C98.0238 117.061 97.8869 117.093 97.8046 117.13C97.7226 117.167 97.6556 117.218 97.6025 117.284C97.5506 117.352 97.5157 117.427 97.5004 117.515C97.4762 117.65 97.5051 117.758 97.5857 117.839C97.6662 117.92 97.791 117.961 97.9583 117.961C98.118 117.961 98.2687 117.924 98.4115 117.851C98.5561 117.777 98.6703 117.681 98.7568 117.559C98.842 117.437 98.9061 117.261 98.9471 117.027L98.979 116.851ZM98.8252 117.922C98.6505 118.061 98.4785 118.163 98.3036 118.231C98.1286 118.301 97.9554 118.336 97.7819 118.336C97.5066 118.336 97.3012 118.263 97.1629 118.117C97.0259 117.972 96.9787 117.775 97.0212 117.529C97.0519 117.366 97.1156 117.221 97.2145 117.093C97.3119 116.968 97.4352 116.869 97.5813 116.799C97.7273 116.727 97.9386 116.675 98.2153 116.641C98.5865 116.595 98.8633 116.54 99.0445 116.475L99.0686 116.353C99.1023 116.159 99.0884 116.023 99.0232 115.944C98.9335 115.831 98.7721 115.775 98.5411 115.775C98.3339 115.775 98.1714 115.812 98.0557 115.887C97.9386 115.962 97.8368 116.105 97.753 116.314L97.3254 116.249C97.4411 115.944 97.6054 115.725 97.8229 115.586C98.0374 115.448 98.3233 115.378 98.678 115.378C98.9548 115.378 99.1646 115.424 99.3062 115.515C99.4475 115.607 99.5266 115.719 99.5449 115.855C99.5617 115.99 99.5464 116.187 99.5006 116.446L99.3882 117.086C99.3091 117.534 99.2681 117.816 99.2681 117.932C99.2663 118.049 99.2832 118.162 99.3197 118.272H98.8541C98.8252 118.174 98.8146 118.058 98.8252 117.922ZM94.25 118.272L94.9404 114.365H95.4211L94.8127 117.811H96.6061L96.524 118.272H94.25ZM91.1439 117.1L91.2289 116.617H92.6009L92.5174 117.1H91.1439ZM89.3476 117.843L89.3337 118.266C89.2059 118.295 89.0903 118.309 88.9929 118.309C88.8362 118.309 88.7161 118.282 88.6309 118.228C88.5459 118.174 88.4939 118.1 88.4757 118.005C88.4562 117.912 88.4712 117.723 88.5214 117.443L88.8091 115.814H88.4833L88.5488 115.442H88.8758L88.9991 114.74L89.4966 114.453L89.3216 115.442H89.7719L89.7049 115.814H89.2546L88.9625 117.469C88.9351 117.623 88.9306 117.722 88.9489 117.766C88.9764 117.83 89.0416 117.862 89.1466 117.862C89.1983 117.862 89.2652 117.855 89.3476 117.843ZM85.4442 118.272L85.9461 115.442H86.3494L86.2777 115.844C86.4011 115.687 86.5409 115.571 86.6961 115.494C86.8499 115.416 87.0186 115.378 87.201 115.378C87.3411 115.378 87.4674 115.402 87.5798 115.451C87.6908 115.5 87.7761 115.563 87.8354 115.642C87.8961 115.722 87.9327 115.825 87.9466 115.95C87.9602 116.076 87.9448 116.27 87.8994 116.532L87.5919 118.272H87.142L87.4477 116.55C87.4825 116.343 87.4901 116.191 87.466 116.094C87.4429 115.998 87.3942 115.924 87.3166 115.873C87.2393 115.82 87.1449 115.793 87.0322 115.793C86.8195 115.793 86.6353 115.864 86.4831 116.004C86.3311 116.144 86.2246 116.386 86.1638 116.727L85.8915 118.272H85.4442ZM83.251 116.585H84.7216C84.7461 116.34 84.7201 116.157 84.6428 116.036C84.5286 115.861 84.3628 115.771 84.1406 115.771C83.94 115.771 83.7559 115.845 83.5871 115.992C83.4227 116.139 83.3085 116.336 83.251 116.585ZM84.5832 117.36L85.0335 117.421C84.9028 117.723 84.7216 117.951 84.495 118.106C84.2684 118.259 84.0052 118.336 83.7086 118.336C83.3345 118.336 83.053 118.211 82.8659 117.961C82.6789 117.712 82.6287 117.352 82.7107 116.881C82.7975 116.392 82.9801 116.02 83.2584 115.763C83.5369 115.505 83.8562 115.378 84.212 115.378C84.5528 115.378 84.816 115.504 85.0001 115.756C85.1842 116.008 85.2329 116.373 85.1477 116.851L85.1235 116.979H83.1536C83.117 117.298 83.1566 117.537 83.2781 117.699C83.3985 117.861 83.5673 117.941 83.78 117.941C84.1164 117.941 84.384 117.748 84.5832 117.36ZM78.3819 118.272L78.8823 115.442H79.2839L79.214 115.838C79.3279 115.691 79.4618 115.577 79.617 115.498C79.7705 115.418 79.9286 115.378 80.0944 115.378C80.28 115.378 80.4308 115.42 80.5432 115.505C80.6574 115.588 80.7259 115.712 80.7533 115.873C80.887 115.708 81.0301 115.584 81.1791 115.502C81.3313 115.419 81.4895 115.378 81.6553 115.378C81.9061 115.378 82.0949 115.453 82.2121 115.604C82.3307 115.755 82.3593 115.997 82.3018 116.329L81.958 118.272H81.5122L81.8285 116.489C81.8651 116.286 81.8728 116.144 81.853 116.058C81.8362 115.974 81.7937 115.908 81.7282 115.864C81.6597 115.817 81.5807 115.793 81.488 115.793C81.2947 115.793 81.1274 115.861 80.9814 115.995C80.8383 116.129 80.7409 116.34 80.6893 116.628L80.3989 118.272H79.9484L80.2741 116.433C80.3166 116.199 80.3045 116.033 80.239 115.938C80.1753 115.842 80.0702 115.793 79.9271 115.793C79.7235 115.793 79.5486 115.866 79.4069 116.01C79.2609 116.156 79.1561 116.419 79.0877 116.804L78.8289 118.272H78.3819ZM76.1822 116.585H77.6546C77.6776 116.34 77.6501 116.157 77.574 116.036C77.4601 115.861 77.2928 115.771 77.0706 115.771C76.8715 115.771 76.6888 115.845 76.5201 115.992C76.3528 116.139 76.24 116.336 76.1822 116.585ZM77.5147 117.36L77.965 117.421C77.8343 117.723 77.6546 117.951 77.4265 118.106C77.1984 118.259 76.9352 118.336 76.6387 118.336C76.2645 118.336 75.9845 118.211 75.7975 117.961C75.6104 117.712 75.5587 117.352 75.6408 116.881C75.729 116.392 75.9116 116.02 76.1899 115.763C76.4684 115.505 76.7862 115.378 77.1435 115.378C77.4858 115.378 77.749 115.504 77.9316 115.756C78.1143 116.008 78.1641 116.373 78.0806 116.851L78.0547 116.979H76.0848C76.0471 117.298 76.0881 117.537 76.2097 117.699C76.3297 117.861 76.497 117.941 76.713 117.941C77.0464 117.941 77.3155 117.748 77.5147 117.36ZM73.7409 118.272L73.239 115.442H73.712L73.9799 117.138C74.0103 117.329 74.033 117.519 74.0466 117.707C74.1121 117.557 74.1988 117.379 74.3068 117.168L75.1997 115.442H75.6591L74.1607 118.272H73.7409ZM70.7156 116.857C70.6501 117.223 70.6775 117.496 70.7962 117.674C70.9163 117.853 71.0883 117.941 71.3131 117.941C71.5232 117.941 71.7194 117.851 71.9021 117.671C72.0844 117.491 72.2092 117.22 72.2715 116.857C72.337 116.492 72.3066 116.221 72.1894 116.042C72.0679 115.864 71.8958 115.775 71.6722 115.775C71.4609 115.775 71.2629 115.864 71.0821 116.045C70.9009 116.224 70.7793 116.495 70.7156 116.857ZM70.2562 116.857C70.3427 116.368 70.5238 116 70.8006 115.751C71.0791 115.502 71.3984 115.378 71.756 115.378C72.1056 115.378 72.378 115.502 72.5698 115.751C72.763 116 72.8176 116.357 72.7341 116.827C72.6441 117.336 72.4618 117.715 72.185 117.962C71.9079 118.212 71.5902 118.336 71.2311 118.336C70.8782 118.336 70.6058 118.211 70.4143 117.961C70.224 117.712 70.1709 117.343 70.2562 116.857ZM65.9849 118.272L66.6753 114.365H67.4009L67.7753 117.131L67.8438 117.709C67.9119 117.566 68.014 117.357 68.1495 117.084L69.5047 114.365H70.1512L69.4604 118.272H68.9966L69.5746 115.002L67.9364 118.272H67.503L67.0359 114.946L66.4487 118.272H65.9849ZM61.6894 118.272L62.1898 115.442H62.5929L62.5215 115.844C62.6474 115.687 62.7858 115.571 62.9396 115.494C63.0948 115.416 63.2621 115.378 63.4447 115.378C63.586 115.378 63.7123 115.402 63.8233 115.451C63.9345 115.5 64.0212 115.563 64.0806 115.642C64.1399 115.722 64.1762 115.825 64.1915 115.95C64.2051 116.076 64.19 116.27 64.1428 116.532L63.8357 118.272H63.3854L63.6911 116.55C63.7277 116.343 63.735 116.191 63.7108 116.094C63.6864 115.998 63.638 115.924 63.5604 115.873C63.4842 115.82 63.3883 115.793 63.2756 115.793C63.0629 115.793 62.8788 115.864 62.7265 116.004C62.5746 116.144 62.468 116.386 62.4087 116.727L62.1349 118.272H61.6894ZM60.7962 116.851C60.6201 116.922 60.366 116.983 60.0344 117.033C59.8411 117.061 59.7042 117.093 59.6222 117.13C59.5416 117.167 59.4761 117.218 59.4212 117.284C59.3681 117.352 59.3345 117.427 59.3194 117.515C59.295 117.65 59.3239 117.758 59.403 117.839C59.4838 117.92 59.6083 117.961 59.7756 117.961C59.9355 117.961 60.0875 117.924 60.2291 117.851C60.3737 117.777 60.4876 117.681 60.5729 117.559C60.6611 117.437 60.7219 117.261 60.7644 117.027L60.7962 116.851ZM60.6428 117.922C60.4693 118.061 60.2961 118.163 60.1211 118.231C59.9476 118.301 59.7727 118.336 59.6009 118.336C59.3271 118.336 59.1185 118.263 58.9819 118.117C58.8432 117.972 58.7963 117.775 58.8388 117.529C58.8692 117.366 58.9332 117.221 59.0321 117.093C59.1309 116.968 59.2539 116.869 59.4 116.799C59.5461 116.727 59.7558 116.675 60.0344 116.641C60.4056 116.595 60.6809 116.54 60.8617 116.475L60.8862 116.353C60.921 116.159 60.906 116.023 60.8405 115.944C60.7508 115.831 60.5894 115.775 60.3598 115.775C60.1515 115.775 59.9886 115.812 59.873 115.887C59.7558 115.962 59.6555 116.105 59.5702 116.314L59.1415 116.249C59.2587 115.944 59.4245 115.725 59.6405 115.586C59.8547 115.448 60.1424 115.378 60.4953 115.378C60.7735 115.378 60.9804 115.424 61.1235 115.515C61.2648 115.607 61.3456 115.719 61.3622 115.855C61.379 115.99 61.3654 116.187 61.3197 116.446L61.2055 117.086C61.1279 117.534 61.0869 117.816 61.0869 117.932C61.0839 118.049 61.1022 118.162 61.1388 118.272H60.6717C60.6428 118.174 60.6336 118.058 60.6428 117.922ZM56.6651 116.585H58.1374C58.1604 116.34 58.133 116.157 58.0569 116.036C57.9442 115.861 57.7772 115.771 57.5535 115.771C57.354 115.771 57.1717 115.845 57.0026 115.992C56.8368 116.139 56.7229 116.336 56.6651 116.585ZM57.9976 117.36L58.4478 117.421C58.3168 117.723 58.1389 117.951 57.9094 118.106C57.6813 118.259 57.4195 118.336 57.123 118.336C56.7471 118.336 56.4689 118.211 56.2818 117.961C56.0947 117.712 56.0416 117.352 56.1251 116.881C56.2119 116.392 56.3942 116.02 56.6727 115.763C56.9525 115.505 57.2705 115.378 57.6279 115.378C57.9687 115.378 58.2318 115.504 58.4142 115.756C58.5983 116.008 58.647 116.373 58.5635 116.851L58.5375 116.979H56.5677C56.5296 117.298 56.5724 117.537 56.6925 117.699C56.8141 117.861 56.9814 117.941 57.1959 117.941C57.5305 117.941 57.7984 117.748 57.9976 117.36ZM53.8511 116.874C53.787 117.239 53.8101 117.509 53.9181 117.681C54.0275 117.855 54.1795 117.941 54.376 117.941C54.5675 117.941 54.7501 117.851 54.9251 117.673C55.0998 117.493 55.2216 117.216 55.2886 116.841C55.3538 116.47 55.3311 116.198 55.2231 116.02C55.1166 115.842 54.9614 115.753 54.7622 115.753C54.5828 115.753 54.4017 115.848 54.2208 116.04C54.0396 116.231 53.9163 116.509 53.8511 116.874ZM53.0084 119.357L53.7006 115.442H54.1095L54.0458 115.809C54.1751 115.657 54.3058 115.547 54.4412 115.48C54.5752 115.41 54.7242 115.378 54.8823 115.378C55.0909 115.378 55.2688 115.432 55.4179 115.54C55.5654 115.648 55.6719 115.813 55.7342 116.035C55.7982 116.256 55.8026 116.522 55.7463 116.833C55.6613 117.314 55.4801 117.685 55.2063 117.945C54.9295 118.206 54.6389 118.336 54.3288 118.336C54.1919 118.336 54.07 118.304 53.9605 118.243C53.8526 118.18 53.7658 118.093 53.6988 117.979L53.4554 119.357H53.0084ZM50.9137 116.857C50.8485 117.223 50.8757 117.496 50.9943 117.674C51.1161 117.853 51.2879 117.941 51.513 117.941C51.7216 117.941 51.9193 117.851 52.1002 117.671C52.2828 117.491 52.4062 117.22 52.4714 116.857C52.5354 116.492 52.5065 116.221 52.3879 116.042C52.2675 115.864 52.0957 115.775 51.8706 115.775C51.6591 115.775 51.4614 115.864 51.2805 116.045C51.0993 116.224 50.9778 116.495 50.9137 116.857ZM50.4561 116.857C50.5425 116.368 50.7237 116 51.002 115.751C51.2772 115.502 51.5953 115.378 51.9526 115.378C52.3041 115.378 52.5779 115.502 52.7697 115.751C52.9626 116 53.016 116.357 52.9337 116.827C52.844 117.336 52.6617 117.715 52.3831 117.962C52.1064 118.212 51.7901 118.336 51.431 118.336C51.0766 118.336 50.8043 118.211 50.6128 117.961C50.4225 117.712 50.3693 117.343 50.4561 116.857ZM48.6778 118.272L49.1782 115.442H49.5812L49.5054 115.871C49.6453 115.672 49.7624 115.54 49.8583 115.475C49.9571 115.41 50.0575 115.378 50.1655 115.378C50.3145 115.378 50.4576 115.429 50.596 115.533L50.3664 115.978C50.2673 115.907 50.1655 115.873 50.0589 115.873C49.9645 115.873 49.8733 115.903 49.7822 115.961C49.6939 116.02 49.624 116.102 49.5739 116.206C49.4839 116.39 49.4216 116.585 49.385 116.79L49.1233 118.272H48.6778ZM47.5781 118.272L47.6509 117.856C47.5217 118.017 47.3774 118.136 47.2252 118.216C47.0714 118.296 46.9071 118.336 46.7309 118.336C46.5238 118.336 46.355 118.287 46.2243 118.188C46.0933 118.09 46.0157 117.964 45.9945 117.814C45.9732 117.662 45.9839 117.456 46.0296 117.195L46.34 115.442H46.7855L46.5073 117.011C46.4554 117.303 46.4371 117.497 46.4554 117.596C46.4707 117.695 46.5179 117.774 46.597 117.833C46.6761 117.893 46.7734 117.922 46.8891 117.922C47.1036 117.922 47.2936 117.845 47.458 117.691C47.5978 117.557 47.6996 117.313 47.7622 116.958L48.0298 115.442H48.4801L47.9782 118.272H47.5781ZM42.531 118.272L43.2233 114.365H45.8561L45.7741 114.826H43.6216L43.4103 116.023H45.4256L45.3436 116.481H43.328L43.094 117.811H45.33L45.2491 118.272H42.531Z" fill="#231F20"/>
</svg>
