<svg width="150" height="150" viewBox="0 0 150 150" fill="none" xmlns="http://www.w3.org/2000/svg">
<rect width="150" height="150" fill="white"/>
<path d="M69.2274 58.6613H58.3357V72.0337H69.1744C73.7524 72.0337 74.9812 70.2627 74.9812 65.3465C74.9812 60.0634 73.7524 58.6613 69.2274 58.6613ZM73.1573 66.0679C73.1573 70.0755 71.6293 70.5562 69.4143 70.5562H60.1619V60.1386H69.7124C71.9456 60.1386 73.1573 60.8408 73.1573 64.6984V66.0679Z" fill="#194890"/>
<path d="M89.241 67.5998V66.5469C89.241 63.1878 87.1739 62.4645 84.3065 62.4645H81.736C79.4661 62.4645 77.0811 62.8534 77.0811 66.2715V68.32C77.0811 71.7934 79.4661 72.1819 81.5506 72.1819H84.4557C87.4342 72.1819 89.241 71.5342 89.241 69.3729V69.1872H87.6396C87.5454 70.63 86.7267 70.888 84.7179 70.888H82.5191C79.7264 70.888 78.6819 70.3342 78.6819 68.1914V67.5998H89.241ZM81.9596 63.7583H84.3065C86.9147 63.7583 87.6396 64.7204 87.6396 65.6783V66.3059H78.6819C78.8321 64.1642 79.4271 63.7583 81.9596 63.7583Z" fill="#194890"/>
<path d="M91.7981 72.0353H93.4006V58.6618H91.7981V72.0353Z" fill="#194890"/>
<path d="M96.4035 72.034H98.0038V66.6752C98.0038 64.459 98.8614 63.758 102.603 63.758H103.012C106.122 63.758 106.513 64.6644 106.513 66.0464V72.034H108.114V65.6598C108.114 63.9612 107.164 62.4642 104.167 62.4642H101.765C99.7716 62.4642 98.5267 62.7785 97.9282 64.2378H97.8918V62.6114H96.4035V72.034Z" fill="#194890"/>
<path d="M117.434 62.4635H114.903C112.035 62.4635 110.937 63.1664 110.937 64.8836V65.3459H112.54V65.0156C112.54 64.2378 112.928 63.7585 114.939 63.7585H117.285C119.742 63.7585 120.822 63.9798 120.822 65.6788V67.452H120.787C120.227 66.547 119.482 66.3253 117.397 66.3253H114.826C112.035 66.3253 110.507 66.5838 110.507 68.7265V69.3526C110.507 71.1281 111.142 72.1813 113.562 72.1813H117.397C119.854 72.1813 120.357 71.9403 120.787 71.0905H120.822V72.0345H122.425V65.7155C122.425 62.9096 120.415 62.4635 117.434 62.4635ZM120.822 69.5009C120.822 70.6865 119.706 70.8875 116.803 70.8875H114.679C112.483 70.8875 112.11 70.4437 112.11 69.3916V69.0969C112.11 67.912 112.689 67.6192 114.754 67.6192H117.211C119.67 67.6192 120.822 67.7857 120.822 69.0761V69.5009Z" fill="#194890"/>
<path d="M33.9189 64.7692C35.3315 64.7692 36.4903 65.928 36.4903 67.3451C36.4903 68.7643 35.3315 69.9185 33.9189 69.9185C32.5005 69.9185 31.3463 68.7643 31.3463 67.3451C31.3463 65.928 32.5005 64.7692 33.9189 64.7692ZM22.6976 66.1864C22.9148 66.926 23.377 67.6225 24.0467 68.2512C25.4233 64.5426 27.899 61.4589 31.0103 59.5053C27.4758 60.6115 24.5109 63.0293 22.6976 66.1864ZM24.6062 83.2144C23.4709 80.7705 22.8296 77.9982 22.8296 75.0625C22.8296 74.6326 22.8426 74.1987 22.875 73.7731C22.0541 72.9662 21.4159 72.0484 20.974 71.0375C20.8435 71.8032 20.7788 72.595 20.7788 73.4016C20.7788 77.1795 22.2282 80.6214 24.6062 83.2144ZM49.4373 69.8776C47.9899 74.4567 42.0769 77.9074 35.0303 77.9074C32.6908 77.9074 30.481 77.5865 28.5123 76.9745C28.6496 80.806 29.6269 84.3656 31.2003 87.3475C31.4435 87.419 31.6852 87.4855 31.9315 87.5465C30.6335 84.9641 29.8871 81.9898 29.8871 78.8274C29.8871 78.5497 29.8935 78.28 29.9056 78.008C31.5018 78.3738 33.231 78.5648 35.0303 78.5648C35.204 78.5648 35.381 78.5648 35.5604 78.5596C35.5505 78.8857 35.5505 79.2118 35.5604 79.5477C35.6262 82.5145 36.2421 85.3227 37.282 87.8131C44.3751 86.8519 49.8671 80.7466 49.8671 73.4016C49.8671 72.1865 49.7147 71.0008 49.4373 69.8776ZM36.7978 58.9318C33.0559 61.1771 30.1992 65.5024 29.0545 70.8075C30.7622 71.2785 32.7188 71.5441 34.7852 71.5441C41.5131 71.5441 47.007 68.7223 47.007 65.2716C47.007 65.0726 46.9889 64.8774 46.9575 64.6829C45.8861 63.2704 44.5707 62.0476 43.0661 61.0954L43.4067 60.593C47.9468 63.4183 50.9782 68.4555 50.9782 74.1802C50.9782 82.9844 43.7986 90.1674 34.9921 90.1674C26.1827 90.1674 19 82.9844 19 74.1802C19 65.3719 26.1827 58.188 34.9921 58.188C37.1296 58.188 39.1694 58.6136 41.038 59.3835L40.7929 59.9267C39.539 59.4104 38.201 59.0668 36.7978 58.9318Z" fill="#194890"/>
<path d="M53.8935 91.2014H54.4844V56.7986H53.8935V91.2014Z" fill="#194890"/>
<path d="M58.2971 78.8083C58.487 78.9206 58.7852 79.0179 59.092 79.0179C59.4729 79.0179 59.6882 78.8374 59.6882 78.5687C59.6882 78.3202 59.5229 78.1734 59.1071 78.0222C58.5604 77.8318 58.2139 77.5394 58.2139 77.0718C58.2139 76.5297 58.6629 76.1245 59.3814 76.1245C59.7366 76.1245 59.9958 76.2025 60.1652 76.2845L60.0249 76.7726C59.9031 76.7101 59.673 76.617 59.3663 76.617C58.9849 76.617 58.8241 76.8168 58.8241 77.0125C58.8241 77.2663 59.014 77.3839 59.4537 77.5492C60.0249 77.7683 60.2984 78.0577 60.2984 78.5252C60.2984 79.0568 59.8974 79.5115 59.053 79.5115C58.7019 79.5115 58.3414 79.4144 58.1598 79.3062L58.2971 78.8083Z" fill="#194890"/>
<path d="M61.6953 78.53L61.4123 79.4622H60.7923L61.8474 76.1728H62.6131L63.6822 79.4622H63.0375L62.7406 78.53H61.6953ZM62.6369 78.0764L62.3789 77.2665C62.3153 77.0657 62.2612 76.8413 62.2125 76.651H62.203C62.1542 76.8413 62.1058 77.0713 62.0475 77.2665L61.7936 78.0764H62.6369Z" fill="#194890"/>
<path d="M64.3369 76.2208C64.5279 76.1818 64.8736 76.1486 65.216 76.1486C65.6553 76.1486 65.9341 76.2068 66.1535 76.3578C66.3574 76.4799 66.4948 76.6949 66.4948 76.9778C66.4948 77.2801 66.3045 77.5533 65.947 77.6864V77.7004C66.2947 77.7889 66.6124 78.061 66.6124 78.5104C66.6124 78.8032 66.485 79.0332 66.3003 79.1887C66.0657 79.3949 65.6791 79.4974 65.0746 79.4974C64.7416 79.4974 64.4934 79.4728 64.3369 79.4531V76.2208ZM64.9331 77.5199H65.2398C65.661 77.5199 65.8898 77.3243 65.8898 77.0459C65.8898 76.7338 65.6553 76.5923 65.2743 76.5923C65.0984 76.5923 64.9966 76.6021 64.9331 76.6173V77.5199ZM64.9331 79.0276C65.0106 79.0427 65.1132 79.0427 65.2505 79.0427C65.6349 79.0427 65.9829 78.9012 65.9829 78.4907C65.9829 78.1098 65.6447 77.9543 65.23 77.9543H64.9331V79.0276Z" fill="#194890"/>
<path d="M67.3461 79.4623H67.9464V76.1729H67.3461V79.4623Z" fill="#194890"/>
<path d="M70.6705 78.0036H69.4308V78.9702H70.8172V79.4627H68.83V76.1733H70.7428V76.6655H69.4308V77.5156H70.6705V78.0036Z" fill="#194890"/>
<path d="M71.5402 76.2214C71.808 76.1772 72.1406 76.1492 72.497 76.1492C73.1117 76.1492 73.5316 76.2755 73.8339 76.529C74.1558 76.7874 74.3526 77.1835 74.3526 77.7388C74.3526 78.3305 74.1506 78.7648 73.8384 79.0477C73.5124 79.3459 72.9895 79.4969 72.3502 79.4969C72.0036 79.4969 71.7399 79.4775 71.5402 79.453V76.2214ZM72.1406 79.0088C72.2227 79.0239 72.3502 79.0239 72.4724 79.0239C73.2531 79.0281 73.7173 78.5931 73.7173 77.7592C73.7219 77.0367 73.3016 76.6167 72.551 76.6167C72.36 76.6167 72.228 76.6318 72.1406 76.65V79.0088Z" fill="#194890"/>
<path d="M75.0705 76.2212C75.3005 76.177 75.633 76.149 75.9785 76.149C76.4528 76.149 76.7691 76.2265 76.9938 76.4122C77.1743 76.5636 77.2768 76.7925 77.2768 77.0755C77.2768 77.501 76.9892 77.7882 76.6776 77.8964V77.9112C76.9163 77.9989 77.0577 78.2277 77.1353 78.5452C77.2431 78.9545 77.3308 79.3358 77.3948 79.4622H76.7789C76.7305 79.365 76.6473 79.096 76.5599 78.6867C76.4615 78.2569 76.3113 78.1207 75.969 78.1101H75.6666V79.4622H75.0705V76.2212ZM75.6666 77.6716H76.023C76.4278 77.6716 76.6776 77.4568 76.6776 77.1296C76.6776 76.7728 76.4278 76.6025 76.0382 76.6025C75.8467 76.6025 75.7249 76.6165 75.6666 76.6313V77.6716Z" fill="#194890"/>
<path d="M78.9565 75.8796H77.7361V75.5426H78.9565V75.8796ZM78.6448 79.4623H78.0441V76.1729H78.6448V79.4623Z" fill="#194890"/>
<path d="M79.5286 76.2208C79.7196 76.1818 80.065 76.1486 80.4075 76.1486C80.847 76.1486 81.1259 76.2068 81.3452 76.3578C81.5492 76.4799 81.686 76.6949 81.686 76.9778C81.686 77.2801 81.4961 77.5533 81.1386 77.6864V77.7004C81.4864 77.7889 81.8041 78.061 81.8041 78.5104C81.8041 78.8032 81.6767 79.0332 81.4916 79.1887C81.2563 79.3949 80.8708 79.4974 80.2658 79.4974C79.9334 79.4974 79.6848 79.4728 79.5286 79.4531V76.2208ZM80.1244 77.5199H80.4313C80.8526 77.5199 81.0812 77.3243 81.0812 77.0459C81.0812 76.7338 80.847 76.5923 80.466 76.5923C80.2898 76.5923 80.1883 76.6021 80.1244 76.6173V77.5199ZM80.1244 79.0276C80.2023 79.0427 80.3048 79.0427 80.4422 79.0427C80.8266 79.0427 81.1746 78.9012 81.1746 78.4907C81.1746 78.1098 80.8363 77.9543 80.4214 77.9543H80.1244V79.0276Z" fill="#194890"/>
<path d="M83.1957 78.53L82.9127 79.4622H82.293L83.3482 76.1728H84.1139L85.183 79.4622H84.5384L84.2414 78.53H83.1957ZM84.1374 78.0764L83.8797 77.2665C83.8158 77.0657 83.7616 76.8413 83.7133 76.651H83.7046C83.655 76.8413 83.6062 77.0713 83.5479 77.2665L83.294 78.0764H84.1374Z" fill="#194890"/>
<path d="M87.0443 76.2173C87.2634 76.1772 87.5615 76.148 87.9621 76.148C88.4005 76.148 88.7183 76.24 88.9278 76.4171C89.1243 76.5778 89.2506 76.8362 89.2506 77.1438C89.2506 77.4559 89.1523 77.7109 88.9721 77.8868C88.7279 78.1256 88.3574 78.2424 87.9322 78.2424C87.821 78.2424 87.7226 78.2368 87.639 78.2175V79.4625H87.0443V76.2173ZM87.639 77.7446C87.7169 77.768 87.8096 77.7733 87.9322 77.7733C88.3813 77.7733 88.6544 77.549 88.6544 77.1688C88.6544 76.8082 88.4005 76.6116 87.9859 76.6116C87.821 76.6116 87.7029 76.6266 87.639 76.6417V77.7446Z" fill="#194890"/>
<path d="M90.2814 78.53L89.9984 79.4622H89.3783L90.4335 76.1728H91.1992L92.2683 79.4622H91.6237L91.3267 78.53H90.2814ZM91.223 78.0764L90.965 77.2665C90.9011 77.0657 90.8469 76.8413 90.7985 76.651H90.7886C90.7403 76.8413 90.6915 77.0713 90.6325 77.2665L90.3797 78.0764H91.223Z" fill="#194890"/>
<path d="M92.9237 76.2212C93.1526 76.177 93.4854 76.149 93.8308 76.149C94.3049 76.149 94.6215 76.2265 94.8463 76.4122C95.0267 76.5636 95.1292 76.7925 95.1292 77.0755C95.1292 77.501 94.8418 77.7882 94.5296 77.8964V77.9112C94.7684 77.9989 94.9098 78.2277 94.9878 78.5452C95.0956 78.9545 95.1834 79.3358 95.248 79.4622H94.6314C94.583 79.365 94.4994 79.096 94.4124 78.6867C94.3151 78.2569 94.1635 78.1207 93.8214 78.1101H93.5187V79.4622H92.9237V76.2212ZM93.5187 77.6716H93.8755C94.2804 77.6716 94.5296 77.4568 94.5296 77.1296C94.5296 76.7728 94.2804 76.6025 93.8906 76.6025C93.6993 76.6025 93.5782 76.6165 93.5187 76.6313V77.6716Z" fill="#194890"/>
<path d="M97.762 78.53L97.4789 79.4622H96.859L97.9141 76.1728H98.6812L99.7492 79.4622H99.1046L98.8076 78.53H97.762ZM98.7046 78.0764L98.4456 77.2665C98.3821 77.0657 98.3279 76.8413 98.2791 76.651H98.2708C98.2208 76.8413 98.1724 77.0713 98.1142 77.2665L97.8602 78.0764H98.7046Z" fill="#194890"/>
<path d="M100.786 76.6747H99.8481V76.1727H102.332V76.6747H101.386V79.4622H100.786V76.6747Z" fill="#194890"/>
<path d="M103.061 76.1726H103.657V77.6859H103.67C103.749 77.5596 103.833 77.4415 103.91 77.3295L104.774 76.1726H105.512L104.379 77.5735L105.584 79.4624H104.882L103.953 77.9538L103.657 78.3056V79.4624H103.061V76.1726Z" fill="#194890"/>
<path d="M106.245 76.1726H106.845V78.9601H108.197V79.4624H106.245V76.1726Z" fill="#194890"/>
<path d="M109.673 78.53L109.39 79.4622H108.77L109.825 76.1728H110.59L111.66 79.4622H111.015L110.718 78.53H109.673ZM110.819 75.88H109.599V75.5428H110.819V75.88ZM110.614 78.0764L110.356 77.2665C110.292 77.0657 110.238 76.8413 110.19 76.651H110.18C110.131 76.8413 110.083 77.0713 110.024 77.2665L109.771 78.0764H110.614Z" fill="#194890"/>
<path d="M112.695 76.6747H111.757V76.1727H114.243V76.6747H113.295V79.4622H112.695V76.6747Z" fill="#194890"/>
<path d="M115.883 75.8796H114.663V75.5426H115.883V75.8796ZM115.571 79.4623H114.97V76.1729H115.571V79.4623Z" fill="#194890"/>
<path d="M116.601 76.2208C116.792 76.1818 117.138 76.1486 117.48 76.1486C117.92 76.1486 118.198 76.2068 118.418 76.3578C118.622 76.4799 118.759 76.6949 118.759 76.9778C118.759 77.2801 118.569 77.5533 118.211 77.6864V77.7004C118.559 77.7889 118.877 78.061 118.877 78.5104C118.877 78.8032 118.749 79.0332 118.564 79.1887C118.33 79.3949 117.944 79.4974 117.339 79.4974C117.006 79.4974 116.758 79.4728 116.601 79.4531V76.2208ZM117.197 77.5199H117.505C117.925 77.5199 118.154 77.3243 118.154 77.0459C118.154 76.7338 117.92 76.5923 117.539 76.5923C117.363 76.5923 117.261 76.6021 117.197 76.6173V77.5199ZM117.197 79.0276C117.275 79.0427 117.378 79.0427 117.515 79.0427C117.9 79.0427 118.247 78.9012 118.247 78.4907C118.247 78.1098 117.909 77.9543 117.494 77.9543H117.197V79.0276Z" fill="#194890"/>
<path d="M120.352 76.1726V78.0907C120.352 78.7353 120.62 79.0327 121.026 79.0327C121.46 79.0327 121.719 78.7353 121.719 78.0907V76.1726H122.318V78.0517C122.318 79.0682 121.797 79.5161 121.006 79.5161C120.244 79.5161 119.75 79.0917 119.75 78.057V76.1726H120.352Z" fill="#194890"/>
<path d="M58.9363 81.8459H57.9999V81.3424H60.4839V81.8459H59.5366V84.6333H58.9363V81.8459Z" fill="#194890"/>
<path d="M61.0653 81.392C61.2942 81.3477 61.6268 81.3186 61.9737 81.3186C62.4477 81.3186 62.764 81.3966 62.9887 81.5819C63.1691 81.7344 63.2717 81.9633 63.2717 82.2463C63.2717 82.6707 62.9846 82.9578 62.6725 83.0661V83.0812C62.9096 83.1686 63.0523 83.3986 63.1302 83.7164C63.2372 84.1254 63.3258 84.5055 63.3893 84.633H62.7738C62.7254 84.5347 62.6422 84.2669 62.5548 83.8568C62.4564 83.4277 62.3051 83.2908 61.9639 83.281H61.6616V84.633H61.0653V81.392ZM61.6616 82.8414H62.0179C62.4228 82.8414 62.6725 82.6276 62.6725 82.3004C62.6725 81.944 62.4228 81.7722 62.0319 81.7722C61.8416 81.7722 61.7198 81.7862 61.6616 81.8014V82.8414Z" fill="#194890"/>
<path d="M64.7327 83.7011L64.4497 84.6328H63.8297L64.8848 81.3422H65.6509L66.72 84.6328H66.075L65.778 83.7011H64.7327ZM65.6743 83.2463L65.4163 82.4363C65.3528 82.2355 65.2986 82.0107 65.2502 81.8219H65.2404C65.1916 82.0107 65.1432 82.2408 65.0838 82.4363L64.8311 83.2463H65.6743Z" fill="#194890"/>
<path d="M67.3693 84.6333V81.3427H68.0581L68.9071 82.7542C69.122 83.12 69.3177 83.5003 69.4689 83.8571L69.4784 83.8514C69.4341 83.4185 69.4247 82.9929 69.4247 82.4905V81.3427H69.9808V84.6333H69.3566L68.4978 83.1829C68.2875 82.8223 68.0721 82.4217 67.9114 82.0509L67.8921 82.0555C67.9167 82.4811 67.9265 82.9143 67.9265 83.456V84.6333H67.3693Z" fill="#194890"/>
<path d="M70.8613 83.9795C71.0512 84.0918 71.3497 84.189 71.6562 84.189C72.0375 84.189 72.2524 84.0075 72.2524 83.7395C72.2524 83.4914 72.087 83.3443 71.6712 83.1934C71.125 83.003 70.7781 82.7094 70.7781 82.2418C70.7781 81.6997 71.2275 81.2945 71.9455 81.2945C72.3011 81.2945 72.5603 81.3724 72.7298 81.4556L72.5895 81.9437C72.4672 81.8802 72.2372 81.7871 71.9305 81.7871C71.5491 81.7871 71.3883 81.9869 71.3883 82.1824C71.3883 82.4363 71.5786 82.5539 72.0182 82.7189C72.5895 82.9395 72.8626 83.2277 72.8626 83.6957C72.8626 84.2279 72.462 84.6812 71.6175 84.6812C71.2665 84.6812 70.9055 84.5844 70.7244 84.4774L70.8613 83.9795Z" fill="#194890"/>
<path d="M73.6012 81.3872C73.8206 81.3482 74.1187 81.318 74.5193 81.318C74.9574 81.318 75.2752 81.4107 75.4848 81.587C75.6804 81.7489 75.8075 82.0073 75.8075 82.3138C75.8075 82.627 75.7092 82.8808 75.5291 83.0571C75.2851 83.2966 74.9143 83.4131 74.4891 83.4131C74.3767 83.4131 74.2794 83.4078 74.1963 83.3885V84.6336H73.6012V81.3872ZM74.1963 82.9145C74.2737 82.9391 74.3669 82.9436 74.4891 82.9436C74.9381 82.9436 75.2113 82.7189 75.2113 82.3387C75.2113 81.9781 74.9574 81.7825 74.5428 81.7825C74.3767 81.7825 74.2598 81.7973 74.1963 81.8117V82.9145Z" fill="#194890"/>
<path d="M76.8382 83.7011L76.5553 84.6328H75.9356L76.9904 81.3422H77.7564L78.8256 84.6328H78.1809L77.8828 83.7011H76.8382ZM77.7799 83.2463L77.5223 82.4363C77.4583 82.2355 77.4042 82.0107 77.3543 81.8219H77.3459C77.2971 82.0107 77.2488 82.2408 77.1894 82.4363L76.9366 83.2463H77.7799Z" fill="#194890"/>
<path d="M79.4801 81.392C79.7086 81.3477 80.0417 81.3186 80.3881 81.3186C80.8621 81.3186 81.1788 81.3966 81.4024 81.5819C81.5841 81.7344 81.6865 81.9633 81.6865 82.2463C81.6865 82.6707 81.3989 82.9578 81.0862 83.0661V83.0812C81.3248 83.1686 81.466 83.3986 81.545 83.7164C81.6518 84.1254 81.7406 84.5055 81.8041 84.633H81.1886C81.1391 84.5347 81.057 84.2669 80.9684 83.8568C80.8712 83.4277 80.72 83.2908 80.3776 83.281H80.0749V84.633H79.4801V81.392ZM80.0749 82.8414H80.4316C80.8364 82.8414 81.0862 82.6276 81.0862 82.3004C81.0862 81.944 80.8364 81.7722 80.4467 81.7722C80.2564 81.7722 80.1342 81.7862 80.0749 81.8014V82.8414Z" fill="#194890"/>
<path d="M84.2938 83.1736H83.0551V84.1402H84.4405V84.6336H82.4547V81.343H84.3672V81.8367H83.0551V82.6853H84.2938V83.1736Z" fill="#194890"/>
<path d="M85.1586 84.6333V81.3427H85.8475L86.6972 82.7542C86.9124 83.12 87.1077 83.5003 87.2582 83.8571L87.2678 83.8514C87.2245 83.4185 87.214 82.9929 87.214 82.4905V81.3427H87.7709V84.6333H87.1459L86.2872 83.1829C86.0775 82.8223 85.8615 82.4217 85.7007 82.0509L85.6814 82.0555C85.7061 82.4811 85.7159 82.9143 85.7159 83.456V84.6333H85.1586Z" fill="#194890"/>
<path d="M91.0184 84.5351C90.8758 84.6033 90.5637 84.6819 90.1638 84.6819C89.119 84.6819 88.4848 84.0275 88.4848 83.0275C88.4848 81.944 89.2407 81.2941 90.2463 81.2941C90.6412 81.2941 90.9201 81.372 91.0418 81.4355L90.9159 81.9141C90.7589 81.846 90.5399 81.7867 90.2709 81.7867C89.6024 81.7867 89.119 82.2066 89.119 82.9973C89.119 83.7198 89.5389 84.1799 90.2667 84.1799C90.5054 84.1799 90.7589 84.1303 90.9201 84.0622L91.0184 84.5351Z" fill="#194890"/>
<path d="M92.4981 84.6333V83.2608L91.4581 81.3427H92.147L92.5371 82.1872C92.6502 82.4323 92.7323 82.6169 92.8253 82.8417H92.8352C92.9128 82.6313 93.007 82.427 93.1182 82.1872L93.5134 81.3427H94.1913L93.0985 83.2464V84.6333H92.4981Z" fill="#194890"/>
<path d="M95.9602 84.6331H96.5607V81.3436H95.9602V84.6331Z" fill="#194890"/>
<path d="M97.4886 84.6333V81.3427H98.1775L99.0264 82.7542C99.2417 83.12 99.4369 83.5003 99.5882 83.8571L99.5978 83.8514C99.5549 83.4185 99.544 82.9929 99.544 82.4905V81.3427H100.101V84.6333H99.4759L98.6172 83.1829C98.4079 82.8223 98.1915 82.4217 98.0311 82.0509L98.0114 82.0555C98.036 82.4811 98.0462 82.9143 98.0462 83.456V84.6333H97.4886Z" fill="#194890"/>
<path d="M101.67 81.8459H100.732V81.3424H103.216V81.8459H102.27V84.6333H101.67V81.8459Z" fill="#194890"/>
<path d="M105.687 83.1736H104.448V84.1402H105.834V84.6336H103.848V81.343H105.76V81.8367H104.448V82.6853H105.687V83.1736Z" fill="#194890"/>
<path d="M106.606 81.392C106.835 81.3477 107.168 81.3186 107.514 81.3186C107.988 81.3186 108.305 81.3966 108.528 81.5819C108.71 81.7344 108.813 81.9633 108.813 82.2463C108.813 82.6707 108.525 82.9578 108.212 83.0661V83.0812C108.451 83.1686 108.592 83.3986 108.671 83.7164C108.778 84.1254 108.867 84.5055 108.93 84.633H108.315C108.266 84.5347 108.183 84.2669 108.095 83.8568C107.997 83.4277 107.846 83.2908 107.504 83.281H107.201V84.633H106.606V81.392ZM107.201 82.8414H107.558C107.962 82.8414 108.212 82.6276 108.212 82.3004C108.212 81.944 107.962 81.7722 107.573 81.7722C107.382 81.7722 107.26 81.7862 107.201 81.8014V82.8414Z" fill="#194890"/>
<path d="M109.624 84.6333V81.3427H110.312L111.161 82.7542C111.377 83.12 111.572 83.5003 111.722 83.8571L111.732 83.8514C111.689 83.4185 111.678 82.9929 111.678 82.4905V81.3427H112.235V84.6333H111.61L110.751 83.1829C110.542 82.8223 110.327 82.4217 110.166 82.0509L110.146 82.0555C110.17 82.4811 110.18 82.9143 110.18 83.456V84.6333H109.624Z" fill="#194890"/>
<path d="M113.833 83.7011L113.55 84.6328H112.93L113.985 81.3422H114.751L115.82 84.6328H115.176L114.879 83.7011H113.833ZM114.775 83.2463L114.517 82.4363C114.453 82.2355 114.399 82.0107 114.349 81.8219H114.341C114.292 82.0107 114.243 82.2408 114.184 82.4363L113.931 83.2463H114.775Z" fill="#194890"/>
<path d="M116.758 81.8459H115.821V81.3424H118.305V81.8459H117.358V84.6333H116.758V81.8459Z" fill="#194890"/>
<path d="M118.936 84.6331H119.536V81.3436H118.936V84.6331Z" fill="#194890"/>
<path d="M121.818 84.6868C120.884 84.6868 120.298 83.9742 120.298 83.0117C120.298 82.0073 120.937 81.2892 121.866 81.2892C122.822 81.2892 123.389 82.0171 123.389 82.9547C123.389 84.057 122.72 84.6868 121.822 84.6868H121.818ZM121.846 84.203C122.426 84.203 122.754 83.6673 122.754 82.9785C122.754 82.3584 122.447 81.772 121.846 81.772C121.245 81.772 120.933 82.3432 120.933 82.9977C120.933 83.651 121.266 84.203 121.841 84.203H121.846Z" fill="#194890"/>
<path d="M124.145 84.6333V81.3427H124.834L125.684 82.7542C125.9 83.12 126.095 83.5003 126.245 83.8571L126.255 83.8514C126.212 83.4185 126.201 82.9929 126.201 82.4905V81.3427H126.758V84.6333H126.133L125.274 83.1829C125.065 82.8223 124.848 82.4217 124.688 82.0509L124.668 82.0555C124.693 82.4811 124.703 82.9143 124.703 83.456V84.6333H124.145Z" fill="#194890"/>
<path d="M128.356 83.7011L128.073 84.6328H127.453L128.508 81.3422H129.274L130.343 84.6328H129.698L129.4 83.7011H128.356ZM129.298 83.2463L129.04 82.4363C128.976 82.2355 128.922 82.0107 128.872 81.8219H128.864C128.815 82.0107 128.766 82.2408 128.707 82.4363L128.453 83.2463H129.298Z" fill="#194890"/>
<path d="M131.046 81.3427H131.647V84.1301H133V84.6333H131.046V81.3427Z" fill="#194890"/>
<path d="M58.3066 86.5139H58.9069V89.3013H60.2602V89.8033H58.3066V86.5139Z" fill="#194890"/>
<path d="M61.5878 88.8711L61.3048 89.8033H60.6848L61.7399 86.5135H62.5056L63.5747 89.8033H62.93L62.633 88.8711H61.5878ZM62.5305 88.4175L62.2714 87.6075C62.2078 87.4066 62.1537 87.182 62.1049 86.992H62.0962C62.0467 87.182 61.9979 87.4112 61.94 87.6075L61.6861 88.4175H62.5305Z" fill="#194890"/>
<path d="M64.4648 87.0157H63.5274V86.5137H66.0125V87.0157H65.0652V89.8033H64.4648V87.0157Z" fill="#194890"/>
<path d="M67.5117 89.8034L66.4479 86.5136H67.1016L67.5507 88.0118C67.677 88.4275 67.7894 88.813 67.8727 89.2071H67.8821C67.9706 88.8175 68.0916 88.4176 68.2191 88.017L68.6977 86.5136H69.337L68.1999 89.8034H67.5117Z" fill="#194890"/>
<path d="M69.8894 89.8043H70.4898V86.5145H69.8894V89.8043Z" fill="#194890"/>
<path d="M72.028 86.5139H72.6296V88.6468C72.6296 89.554 72.1888 89.8573 71.5397 89.8573C71.369 89.8573 71.1639 89.8271 71.0323 89.7786L71.1057 89.296C71.2029 89.3293 71.3346 89.3554 71.476 89.3554C71.8184 89.3554 72.028 89.1977 72.028 88.6271V86.5139Z" fill="#194890"/>
<path d="M74.1428 88.8711L73.8597 89.8033H73.2397L74.2949 86.5135H75.0606L76.1296 89.8033H75.4851L75.188 88.8711H74.1428ZM75.0844 88.4175L74.8264 87.6075C74.7624 87.4066 74.7087 87.182 74.6599 86.992H74.6501C74.6016 87.182 74.5529 87.4112 74.4946 87.6075L74.2411 88.4175H75.0844Z" fill="#194890"/>
<path d="M76.7751 89.1495C76.9654 89.2618 77.2631 89.3591 77.5703 89.3591C77.9513 89.3591 78.1661 89.1786 78.1661 88.9096C78.1661 88.6611 77.9996 88.5143 77.5855 88.3629C77.0384 88.173 76.6918 87.8806 76.6918 87.4118C76.6918 86.8709 77.1413 86.4657 77.8582 86.4657C78.215 86.4657 78.4737 86.5433 78.6432 86.6258L78.5029 87.1138C78.381 87.051 78.151 86.9582 77.8442 86.9582C77.4629 86.9582 77.3024 87.158 77.3024 87.3533C77.3024 87.6071 77.4923 87.7247 77.9319 87.89C78.5029 88.1095 78.7764 88.3978 78.7764 88.8664C78.7764 89.3976 78.3754 89.8524 77.531 89.8524C77.1798 89.8524 76.8182 89.7556 76.6381 89.6474L76.7751 89.1495Z" fill="#194890"/>
<path d="M80.7153 89.8034V86.5136H81.4041L82.2528 87.9243C82.468 88.2913 82.6632 88.6715 82.8137 89.0267L82.8244 89.0226C82.7801 88.5882 82.7707 88.163 82.7707 87.6618V86.5136H83.3264V89.8034H82.7021L81.8435 88.3541C81.6331 87.992 81.4182 87.5925 81.2574 87.221L81.238 87.2263C81.2627 87.6511 81.2726 88.0851 81.2726 88.6272V89.8034H80.7153Z" fill="#194890"/>
<path d="M85.5639 89.8568C84.6305 89.8568 84.0454 89.1441 84.0454 88.1828C84.0454 87.1773 84.6847 86.4603 85.6135 86.4603C86.5691 86.4603 87.1361 87.1871 87.1361 88.1246C87.1361 89.2273 86.468 89.8568 85.5692 89.8568H85.5639ZM85.5931 89.3741C86.1738 89.3741 86.5014 88.8373 86.5014 88.1484C86.5014 87.5294 86.1945 86.9431 85.5931 86.9431C84.9922 86.9431 84.6805 87.5133 84.6805 88.1688C84.6805 88.8222 85.012 89.3741 85.5885 89.3741H85.5931Z" fill="#194890"/>
<path d="M87.8497 86.5624C88.1176 86.5182 88.4501 86.4902 88.8064 86.4902C89.4208 86.4902 89.8411 86.6165 90.1435 86.87C90.4665 87.1284 90.662 87.5246 90.662 88.0799C90.662 88.6716 90.4608 89.1058 90.1487 89.3889C89.823 89.687 89.3001 89.8382 88.6597 89.8382C88.3142 89.8382 88.0505 89.8186 87.8497 89.794V86.5624ZM88.4501 89.3499C88.5333 89.3651 88.6597 89.3651 88.783 89.3651C89.5623 89.3692 90.0269 88.9341 90.0269 88.1002C90.0326 87.3777 89.6123 86.9577 88.8605 86.9577C88.6706 86.9577 88.5386 86.973 88.4501 86.9911V89.3499Z" fill="#194890"/>
<path d="M91.9665 88.8711L91.6824 89.8033H91.0634L92.1178 86.5135H92.8847L93.9537 89.8033H93.3091L93.011 88.8711H91.9665ZM92.9081 88.4175L92.6505 87.6075C92.5865 87.4066 92.5324 87.182 92.4829 86.992H92.4741C92.4257 87.182 92.377 87.4112 92.3175 87.6075L92.0637 88.4175H92.9081Z" fill="#194890"/>
<path d="M94.6088 86.5142H95.2084V89.3017H96.5605V89.8025H94.6088V86.5142ZM95.0862 90.6776C95.2624 90.6484 95.4274 90.5459 95.4274 90.3696C95.4274 90.2577 95.3498 90.1506 95.2775 90.076L95.701 89.9981C95.7989 90.0674 95.892 90.2043 95.892 90.3753C95.892 90.7551 95.556 90.9261 95.1842 90.9412L95.0862 90.6776Z" fill="#194890"/>
<path d="M97.8895 88.8711L97.6064 89.8033H96.9864L98.0416 86.5135H98.8077L99.8767 89.8033H99.2321L98.9351 88.8711H97.8895ZM98.8311 88.4175L98.5735 87.6075C98.5096 87.4066 98.4554 87.182 98.4066 86.992H98.3972C98.3487 87.182 98.3 87.4112 98.2417 87.6075L97.9878 88.4175H98.8311Z" fill="#194890"/>
</svg>
