<svg width="150" height="150" viewBox="0 0 150 150" fill="none" xmlns="http://www.w3.org/2000/svg">
<rect width="150" height="150" fill="white"/>
<path d="M111.088 86.1894H39.78V37.7451H111.088V86.1894Z" fill="white"/>
<path d="M109.717 84.7877H41.1506V39.0767H109.717V84.7877Z" fill="#034EA2"/>
<path d="M73.9737 49.0366L75.4221 47.9775L76.8628 49.0366L76.3177 47.3312L77.7817 46.2721H75.975L75.4221 44.5434L74.8615 46.2721H73.0548L74.5188 47.3312L73.9737 49.0366Z" fill="#F9ED1D"/>
<path d="M66.4824 51.0457L67.9308 49.9944L69.3792 51.0457L68.8263 49.3403L70.2981 48.2812H68.4837L67.9308 46.5525L67.3779 48.2812H65.5635L67.0353 49.3403L66.4824 51.0457Z" fill="#F9ED1D"/>
<path d="M62.4486 52.0424L61.8957 53.779L60.0891 53.7712L61.5531 54.8303L61.008 56.5357L62.4486 55.4844L63.897 56.5357L63.3519 54.8303L64.8159 53.7712H63.0093L62.4486 52.0424Z" fill="#F9ED1D"/>
<path d="M60.4395 62.9601L61.8879 64.0192L61.335 62.306L62.8068 61.2547H61.0002L60.4395 59.526L59.8866 61.2547H58.08L59.544 62.306L58.9989 64.0192L60.4395 62.9601Z" fill="#F9ED1D"/>
<path d="M63.0093 68.7538L62.4486 67.025L61.8957 68.7538H60.0891L61.5531 69.8129L61.008 71.5183L62.4486 70.4592L63.897 71.5183L63.3519 69.8129L64.8159 68.7538H63.0093Z" fill="#F9ED1D"/>
<path d="M68.4993 74.2438L67.9386 72.515L67.3857 74.2438H65.5791L67.0431 75.2951L66.498 77.0083L67.9386 75.9492L69.387 77.0083L68.8419 75.2951L70.3059 74.2438H68.4993Z" fill="#F9ED1D"/>
<path d="M75.975 76.2295L75.4221 74.5008L74.8692 76.2295H73.0548L74.5266 77.2886L73.9737 78.994L75.4221 77.9427L76.8628 78.994L76.3177 77.2886L77.7817 76.2295H75.975Z" fill="#F9ED1D"/>
<path d="M83.4507 74.2438L82.8979 72.515L82.345 74.2438H80.5305L82.0023 75.2951L81.4494 77.0083L82.8979 75.9492L84.3463 77.0083L83.7934 75.2951L85.2652 74.2438H83.4507Z" fill="#F9ED1D"/>
<path d="M88.9407 68.7538L88.3878 67.025L87.8349 68.7538H86.0205L87.4923 69.8129L86.9394 71.5183L88.3878 70.4592L89.8363 71.5183L89.2834 69.8129L90.7552 68.7538H88.9407Z" fill="#F9ED1D"/>
<path d="M92.7409 61.2314H90.9265L90.3736 59.5026L89.8207 61.2314H88.0063L89.478 62.2904L88.9329 63.9958L90.3736 62.9368L91.822 63.9958L91.2691 62.2904L92.7409 61.2314Z" fill="#F9ED1D"/>
<path d="M86.9394 56.5123L88.3878 55.461L89.8363 56.5123L89.2834 54.8069L90.7552 53.7556H88.9407L88.3878 52.0269L87.8349 53.7556H86.0205L87.4923 54.8069L86.9394 56.5123Z" fill="#F9ED1D"/>
<path d="M82.9212 46.5525L82.3683 48.289L80.5539 48.2812L82.0257 49.3403L81.4728 51.0457L82.9212 49.9944L84.3696 51.0457L83.8167 49.3403L85.2885 48.2812H83.4741L82.9212 46.5525Z" fill="#F9ED1D"/>
<path d="M52.5744 95.6898L53.7192 96.0558C53.54 96.6943 53.2519 97.1694 52.8392 97.4808C52.4343 97.7923 51.9125 97.9481 51.2818 97.9481C50.503 97.9481 49.8645 97.6833 49.3661 97.1538C48.8677 96.6243 48.6185 95.9 48.6185 94.9734C48.6185 94 48.8677 93.2446 49.3739 92.7073C49.8801 92.17 50.542 91.8974 51.3596 91.8974C52.0761 91.8974 52.6601 92.1077 53.104 92.536C53.3687 92.7852 53.5712 93.1434 53.7036 93.6106L52.5355 93.8909C52.4654 93.5872 52.3252 93.3458 52.0994 93.1745C51.8814 92.9954 51.6166 92.9098 51.2973 92.9098C50.8612 92.9098 50.5108 93.0655 50.2383 93.377C49.9657 93.6885 49.8333 94.1946 49.8333 94.8877C49.8333 95.6275 49.9657 96.157 50.2305 96.4685C50.4952 96.78 50.8457 96.9357 51.2662 96.9357C51.5777 96.9357 51.8502 96.8345 52.0761 96.632C52.3019 96.4296 52.4654 96.1181 52.5666 95.6898H52.5744Z" fill="#034EA2"/>
<path d="M55.6114 95.7209C55.6114 96.1414 55.7127 96.4607 55.9074 96.6865C56.1098 96.9124 56.3512 97.0214 56.6471 97.0214C56.9431 97.0214 57.1845 96.9124 57.3869 96.6865C57.5816 96.4607 57.6828 96.1414 57.6828 95.7131C57.6828 95.2848 57.5816 94.9811 57.3869 94.7553C57.1923 94.5295 56.9431 94.4205 56.6471 94.4205C56.3512 94.4205 56.1098 94.5295 55.9074 94.7553C55.7049 94.9811 55.6114 95.3004 55.6114 95.7209ZM54.4589 95.6586C54.4589 95.2849 54.5524 94.9266 54.7315 94.5762C54.9184 94.2258 55.1754 93.961 55.5102 93.7741C55.8451 93.5872 56.2266 93.5016 56.6394 93.5016C57.2779 93.5016 57.8074 93.7118 58.2202 94.1246C58.6329 94.5451 58.8354 95.0668 58.8354 95.7054C58.8354 96.3439 58.6251 96.8812 58.2124 97.3017C57.7997 97.7223 57.2779 97.9325 56.6471 97.9325C56.2578 97.9325 55.884 97.8468 55.5336 97.6677C55.1832 97.4886 54.9106 97.2317 54.7315 96.8968C54.5446 96.5542 54.4589 96.1414 54.4589 95.6586Z" fill="#034EA2"/>
<path d="M61.7945 95.1603V96.2816H59.5907V95.1603H61.7945Z" fill="#034EA2"/>
<path d="M61.9502 93.6028H62.5732V93.2835C62.5732 92.9253 62.6122 92.6606 62.69 92.4815C62.7679 92.3023 62.9081 92.1622 63.1105 92.0532C63.313 91.9441 63.57 91.8896 63.8815 91.8896C64.193 91.8896 64.5122 91.9363 64.8159 92.0298L64.668 92.8163C64.4889 92.7774 64.3176 92.754 64.154 92.754C63.9905 92.754 63.8737 92.7929 63.8036 92.8708C63.7335 92.9487 63.6946 93.0889 63.6946 93.3069V93.6028H64.5356V94.4828H63.6946V97.8391H62.5732V94.4828H61.9502V93.6028Z" fill="#034EA2"/>
<path d="M67.9542 97.8391V97.2005C67.7984 97.4263 67.596 97.6054 67.3468 97.7378C67.0976 97.8702 66.8328 97.9325 66.5525 97.9325C66.2721 97.9325 66.0152 97.8702 65.7893 97.7456C65.5635 97.621 65.4 97.4419 65.2987 97.2161C65.1975 96.9903 65.143 96.6788 65.143 96.2816V93.595H66.2644V95.5418C66.2644 96.1415 66.2877 96.5074 66.3267 96.6398C66.3656 96.7722 66.4435 96.8812 66.5525 96.9591C66.6615 97.037 66.8017 97.0759 66.9652 97.0759C67.1599 97.0759 67.3312 97.0214 67.4792 96.9202C67.6271 96.8189 67.7361 96.6865 67.7907 96.5308C67.8452 96.3751 67.8763 95.9935 67.8763 95.3861V93.595H68.9977V97.8313H67.9542V97.8391Z" fill="#034EA2"/>
<path d="M74.0126 97.8391H72.8913V95.6742C72.8913 95.2148 72.8679 94.9189 72.8212 94.7865C72.7745 94.6541 72.6966 94.5451 72.5876 94.475C72.4786 94.3971 72.3462 94.366 72.1982 94.366C72.0035 94.366 71.8322 94.4205 71.6765 94.5217C71.5207 94.6307 71.4195 94.7709 71.3572 94.9422C71.3027 95.1213 71.2715 95.4406 71.2715 95.9156V97.8391H70.1502V93.6028H71.1937V94.2258C71.5675 93.743 72.0269 93.5094 72.5876 93.5094C72.8368 93.5094 73.0626 93.5561 73.2651 93.6418C73.4675 93.7274 73.6233 93.8442 73.7323 93.9844C73.8413 94.1246 73.9114 94.2803 73.9503 94.4594C73.9893 94.6385 74.0126 94.8877 74.0126 95.2148V97.8468V97.8391Z" fill="#034EA2"/>
<path d="M76.0451 95.6275C76.0451 96.0791 76.1074 96.4062 76.232 96.6087C76.4111 96.9046 76.6681 97.0448 76.9874 97.0448C77.2443 97.0448 77.4624 96.9357 77.6493 96.7177C77.8284 96.4997 77.9218 96.1726 77.9218 95.7365C77.9218 95.2537 77.8362 94.8955 77.6571 94.6852C77.478 94.4672 77.2599 94.366 76.9796 94.366C76.6992 94.366 76.489 94.475 76.3099 94.6852C76.1308 94.8955 76.0373 95.2148 76.0373 95.6353L76.0451 95.6275ZM79.0354 97.8391H77.9919V97.2161C77.8206 97.4575 77.6181 97.6366 77.3767 97.7612C77.1431 97.878 76.9017 97.9403 76.6681 97.9403C76.1775 97.9403 75.7648 97.7456 75.4143 97.3485C75.0639 96.9591 74.8926 96.4062 74.8926 95.7054C74.8926 95.0045 75.0639 94.4438 75.3988 94.07C75.7336 93.6963 76.1619 93.5094 76.6759 93.5094C77.1509 93.5094 77.5636 93.704 77.9062 94.1012V91.9909H79.0276V97.8468L79.0354 97.8391Z" fill="#034EA2"/>
<path d="M82.672 95.3549C82.6642 95.0279 82.5786 94.7865 82.4228 94.6152C82.2671 94.4438 82.0724 94.3582 81.8388 94.3582C81.5974 94.3582 81.3949 94.4516 81.2314 94.6229C81.0756 94.802 80.99 95.0435 80.9978 95.3472H82.672V95.3549ZM82.6097 96.4919L83.7311 96.6788C83.5909 97.0915 83.3573 97.403 83.0536 97.6132C82.7421 97.8235 82.3527 97.9325 81.8933 97.9325C81.1535 97.9325 80.6084 97.6911 80.258 97.2083C79.9776 96.8189 79.8375 96.3361 79.8375 95.7443C79.8375 95.0434 80.0244 94.4906 80.3904 94.0934C80.7564 93.6963 81.2236 93.4938 81.7843 93.4938C82.415 93.4938 82.9134 93.704 83.2794 94.1168C83.6454 94.5373 83.8167 95.168 83.8012 96.0324H80.99C80.9978 96.3673 81.0912 96.6242 81.2625 96.8111C81.4339 96.998 81.6519 97.0915 81.9089 97.0915C82.088 97.0915 82.2281 97.0448 82.3527 96.9435C82.4696 96.8501 82.563 96.6943 82.6253 96.4841L82.6097 96.4919Z" fill="#034EA2"/>
<path d="M85.5922 95.6275C85.5922 96.0791 85.6545 96.4062 85.7791 96.6087C85.9582 96.9046 86.2152 97.0448 86.5345 97.0448C86.7915 97.0448 87.0095 96.9357 87.1964 96.7177C87.3755 96.4997 87.4689 96.1726 87.4689 95.7365C87.4689 95.2537 87.3833 94.8955 87.2042 94.6852C87.0251 94.4672 86.807 94.366 86.5267 94.366C86.2464 94.366 86.0361 94.475 85.857 94.6852C85.6779 94.8955 85.5844 95.2148 85.5844 95.6353L85.5922 95.6275ZM88.5825 97.8391H87.539V97.2161C87.3677 97.4575 87.1652 97.6366 86.9238 97.7612C86.6902 97.878 86.4488 97.9403 86.2152 97.9403C85.7246 97.9403 85.3119 97.7456 84.9615 97.3485C84.611 96.9591 84.4397 96.4062 84.4397 95.7054C84.4397 95.0045 84.611 94.4438 84.9459 94.07C85.2807 93.6963 85.709 93.5094 86.2308 93.5094C86.7058 93.5094 87.1107 93.704 87.4612 94.1012V91.9909H88.5825V97.8468V97.8391Z" fill="#034EA2"/>
<path d="M93.029 95.6275C93.029 96.0636 93.0991 96.3906 93.2393 96.6009C93.434 96.8968 93.6909 97.0448 94.0102 97.0448C94.2594 97.0448 94.4697 96.9357 94.641 96.7255C94.8123 96.5152 94.9057 96.1804 94.9057 95.7287C94.9057 95.2459 94.8201 94.8955 94.641 94.6775C94.4619 94.4594 94.2438 94.3582 93.9635 94.3582C93.6831 94.3582 93.4729 94.4594 93.2938 94.6697C93.1147 94.8799 93.029 95.1992 93.029 95.6197V95.6275ZM91.9155 97.8391V91.9831H93.0368V94.0934C93.3794 93.6963 93.7922 93.5016 94.2672 93.5016C94.7811 93.5016 95.2094 93.6885 95.5521 94.0623C95.8869 94.436 96.0583 94.9734 96.0583 95.6742C96.0583 96.3751 95.8869 96.9591 95.5443 97.3485C95.2017 97.7378 94.7811 97.9325 94.2906 97.9325C94.0491 97.9325 93.8077 97.8702 93.5741 97.7534C93.3405 97.6288 93.138 97.4575 92.9667 97.2161V97.8391H91.9155Z" fill="#034EA2"/>
<path d="M96.4242 93.6028H97.6157L98.628 96.6165L99.617 93.6028H100.777L99.2822 97.6833L99.0174 98.4231C98.9162 98.6723 98.8227 98.8592 98.7371 98.9916C98.6514 99.1239 98.5424 99.2252 98.4334 99.3108C98.3165 99.3887 98.1764 99.4588 98.0051 99.4977C97.8337 99.5445 97.6468 99.5678 97.4288 99.5678C97.2108 99.5678 97.0005 99.5445 96.7902 99.4977L96.689 98.6178C96.8681 98.6489 97.0239 98.6723 97.164 98.6723C97.4288 98.6723 97.6157 98.5944 97.7403 98.4465C97.8649 98.2907 97.9583 98.096 98.0284 97.8624L96.4165 93.6106L96.4242 93.6028Z" fill="#034EA2"/>
<path d="M39.4062 103.415V104.31H38.6431V106.016C38.6431 106.358 38.6431 106.561 38.6665 106.623C38.682 106.678 38.7132 106.724 38.7677 106.763C38.8222 106.802 38.8845 106.818 38.9546 106.818C39.0558 106.818 39.2116 106.779 39.4062 106.709L39.4997 107.581C39.2427 107.69 38.9468 107.752 38.612 107.752C38.4095 107.752 38.2304 107.721 38.0668 107.651C37.9033 107.581 37.7865 107.495 37.7086 107.386C37.6308 107.277 37.584 107.129 37.5529 106.95C37.5295 106.818 37.514 106.553 37.514 106.156V104.31H37V103.415H37.514V102.574L38.6431 101.92V103.415H39.4062Z" fill="#034EA2"/>
<path d="M41.2985 101.803V103.952C41.6568 103.532 42.0928 103.313 42.599 103.313C42.856 103.313 43.0896 103.36 43.2999 103.454C43.5101 103.547 43.6659 103.672 43.7671 103.82C43.8683 103.968 43.9462 104.131 43.9851 104.318C44.0241 104.497 44.0396 104.777 44.0396 105.159V107.643H42.9183V105.4C42.9183 104.957 42.8949 104.676 42.856 104.552C42.8171 104.435 42.7392 104.334 42.6302 104.264C42.5211 104.193 42.3888 104.155 42.2252 104.155C42.0383 104.155 41.8748 104.201 41.7268 104.295C41.5789 104.388 41.4699 104.52 41.4076 104.707C41.3375 104.886 41.3063 105.159 41.3063 105.517V107.643H40.185V101.787H41.3063L41.2985 101.803Z" fill="#034EA2"/>
<path d="M47.6996 105.167C47.6918 104.84 47.6062 104.598 47.4504 104.427C47.2869 104.256 47.1 104.17 46.8664 104.17C46.625 104.17 46.4225 104.264 46.259 104.435C46.0955 104.614 46.0176 104.855 46.0254 105.159H47.6996V105.167ZM47.6373 106.304L48.7587 106.491C48.6185 106.903 48.3849 107.215 48.0812 107.425C47.7697 107.643 47.3804 107.744 46.9209 107.744C46.1811 107.744 45.636 107.503 45.2856 107.02C45.0053 106.631 44.8651 106.148 44.8651 105.556C44.8651 104.855 45.052 104.302 45.418 103.905C45.784 103.508 46.2512 103.306 46.8119 103.306C47.4427 103.306 47.941 103.516 48.307 103.929C48.673 104.349 48.8444 104.98 48.8288 105.844H46.0176C46.0254 106.179 46.1188 106.436 46.2901 106.623C46.4615 106.81 46.6795 106.903 46.9365 106.903C47.1156 106.903 47.2636 106.857 47.3804 106.763C47.4972 106.67 47.5906 106.514 47.6529 106.296L47.6373 106.304Z" fill="#034EA2"/>
<path d="M56.1254 104.084V105.073H53.1818V106.67H56.4525V107.651H52.006V101.803H56.3434V102.792H53.1818V104.084H56.1254Z" fill="#034EA2"/>
<path d="M60.2371 107.651V107.012C60.0813 107.238 59.8788 107.417 59.6297 107.55C59.3805 107.682 59.1157 107.744 58.8354 107.744C58.555 107.744 58.298 107.682 58.0722 107.558C57.8464 107.433 57.6828 107.254 57.5816 107.028C57.4804 106.802 57.4337 106.491 57.4337 106.094V103.407H58.555V105.354C58.555 105.953 58.5784 106.319 58.6173 106.452C58.6562 106.584 58.7341 106.693 58.8431 106.771C58.9522 106.849 59.0923 106.888 59.2559 106.888C59.4505 106.888 59.6219 106.833 59.7698 106.732C59.9178 106.631 60.0268 106.498 60.0813 106.343C60.1358 106.187 60.167 105.805 60.167 105.198V103.407H61.2883V107.643H60.2448L60.2371 107.651Z" fill="#034EA2"/>
<path d="M63.5155 107.651H62.3941V103.415H63.4376V104.014C63.6167 103.726 63.7802 103.539 63.9204 103.454C64.0606 103.36 64.2241 103.321 64.4032 103.321C64.6602 103.321 64.9016 103.391 65.143 103.532L64.7926 104.513C64.6057 104.388 64.4266 104.326 64.263 104.326C64.0995 104.326 63.9749 104.373 63.8659 104.458C63.7569 104.544 63.6712 104.7 63.6089 104.925C63.5466 105.151 63.5155 105.626 63.5155 106.35V107.659V107.651Z" fill="#034EA2"/>
<path d="M66.5136 105.533C66.5136 105.953 66.6148 106.273 66.8095 106.498C67.0119 106.724 67.2533 106.833 67.5492 106.833C67.8452 106.833 68.0866 106.724 68.289 106.498C68.4837 106.273 68.585 105.953 68.585 105.525C68.585 105.097 68.4837 104.793 68.289 104.567C68.0944 104.341 67.8452 104.232 67.5492 104.232C67.2533 104.232 67.0119 104.341 66.8095 104.567C66.607 104.793 66.5136 105.112 66.5136 105.533ZM65.361 105.471C65.361 105.097 65.4545 104.739 65.6336 104.388C65.8205 104.038 66.0775 103.773 66.4123 103.586C66.7472 103.399 67.1287 103.313 67.5415 103.313C68.18 103.313 68.7095 103.524 69.1223 103.936C69.535 104.357 69.7375 104.879 69.7375 105.517C69.7375 106.156 69.5272 106.693 69.1145 107.114C68.7018 107.534 68.18 107.744 67.5492 107.744C67.1599 107.744 66.7861 107.659 66.4357 107.48C66.0853 107.301 65.8127 107.044 65.6336 106.709C65.4467 106.366 65.361 105.953 65.361 105.471Z" fill="#034EA2"/>
<path d="M71.6998 105.463C71.6998 105.938 71.7933 106.288 71.9802 106.522C72.1671 106.748 72.4007 106.864 72.6732 106.864C72.9458 106.864 73.1483 106.763 73.3274 106.553C73.4987 106.343 73.5843 106 73.5843 105.525C73.5843 105.081 73.4987 104.754 73.3196 104.536C73.1405 104.318 72.9224 104.217 72.6577 104.217C72.3929 104.217 72.1593 104.326 71.9724 104.536C71.7933 104.746 71.6998 105.058 71.6998 105.478V105.463ZM70.5941 103.415H71.6375V104.038C71.7699 103.827 71.9568 103.648 72.1904 103.516C72.4241 103.384 72.681 103.313 72.9614 103.313C73.452 103.313 73.8725 103.508 74.2151 103.89C74.5577 104.279 74.7291 104.816 74.7291 105.502C74.7291 106.187 74.5577 106.763 74.2073 107.153C73.8647 107.542 73.4442 107.744 72.9536 107.744C72.72 107.744 72.5097 107.698 72.315 107.604C72.1281 107.511 71.9257 107.355 71.7154 107.121V109.255H70.5941V103.399V103.415Z" fill="#034EA2"/>
<path d="M78.1321 105.167C78.1321 104.84 78.0386 104.598 77.8829 104.427C77.7271 104.256 77.5325 104.17 77.2988 104.17C77.0574 104.17 76.855 104.264 76.6914 104.435C76.5279 104.614 76.45 104.855 76.4578 105.159H78.1321V105.167ZM78.0698 106.304L79.1911 106.491C79.051 106.903 78.8173 107.215 78.5136 107.425C78.2022 107.643 77.8128 107.744 77.3534 107.744C76.6136 107.744 76.0685 107.503 75.718 107.02C75.4377 106.631 75.2975 106.148 75.2975 105.556C75.2975 104.855 75.4844 104.302 75.8504 103.905C76.2164 103.508 76.6837 103.306 77.2443 103.306C77.8751 103.306 78.3735 103.516 78.7395 103.929C79.1055 104.349 79.2768 104.98 79.2612 105.844H76.45C76.4578 106.179 76.5513 106.436 76.7226 106.623C76.8939 106.81 77.112 106.903 77.3689 106.903C77.548 106.903 77.6882 106.857 77.8128 106.763C77.9296 106.67 78.0231 106.514 78.0854 106.296L78.0698 106.304Z" fill="#034EA2"/>
<path d="M82.5007 105.618C82.3605 105.665 82.1269 105.728 81.8154 105.79C81.5039 105.86 81.3015 105.922 81.208 105.984C81.0601 106.086 80.99 106.218 80.99 106.382C80.99 106.545 81.0523 106.678 81.1691 106.787C81.2859 106.903 81.4339 106.958 81.613 106.958C81.8154 106.958 82.0101 106.888 82.1892 106.755C82.3216 106.654 82.415 106.53 82.454 106.382C82.4851 106.288 82.5007 106.101 82.5007 105.837V105.611V105.618ZM80.9978 104.707L79.9776 104.521C80.0945 104.108 80.2891 103.804 80.5695 103.609C80.8498 103.415 81.2625 103.313 81.8154 103.313C82.3138 103.313 82.6876 103.376 82.9368 103.493C83.1782 103.609 83.3573 103.765 83.4507 103.944C83.5442 104.123 83.5987 104.458 83.5987 104.949L83.5831 106.257C83.5831 106.631 83.5987 106.903 83.6376 107.082C83.6766 107.262 83.7389 107.448 83.8401 107.651H82.7343C82.7032 107.573 82.672 107.464 82.6253 107.316C82.6097 107.254 82.5942 107.207 82.5864 107.184C82.3917 107.371 82.1892 107.511 81.9712 107.604C81.7531 107.698 81.5195 107.744 81.2703 107.744C80.8342 107.744 80.4916 107.628 80.2346 107.386C79.9777 107.145 79.8608 106.849 79.8608 106.491C79.8608 106.249 79.9153 106.039 80.0322 105.852C80.149 105.665 80.3047 105.517 80.515 105.424C80.7252 105.323 81.0211 105.237 81.4105 105.159C81.9322 105.058 82.2982 104.972 82.5007 104.887V104.777C82.5007 104.559 82.4462 104.411 82.345 104.318C82.2359 104.225 82.0413 104.178 81.7453 104.178C81.5429 104.178 81.3871 104.217 81.2781 104.295C81.1691 104.373 81.0756 104.513 81.0056 104.707H80.9978Z" fill="#034EA2"/>
<path d="M88.5669 107.651H87.4456V105.486C87.4456 105.027 87.4222 104.731 87.3755 104.598C87.3288 104.466 87.2509 104.357 87.1419 104.287C87.0329 104.217 86.9005 104.178 86.7525 104.178C86.5578 104.178 86.3865 104.232 86.2308 104.341C86.075 104.45 85.9738 104.591 85.9115 104.762C85.857 104.941 85.8258 105.26 85.8258 105.735V107.659H84.7045V103.423H85.748V104.045C86.1218 103.563 86.5812 103.329 87.1419 103.329C87.3911 103.329 87.6169 103.376 87.8194 103.461C88.0218 103.547 88.1776 103.664 88.2866 103.804C88.3956 103.944 88.4657 104.1 88.5046 104.279C88.5436 104.458 88.5669 104.707 88.5669 105.034V107.667V107.651Z" fill="#034EA2"/>
<path d="M91.9777 101.803H93.1614V104.972C93.1614 105.478 93.177 105.798 93.2081 105.953C93.2626 106.195 93.3794 106.382 93.5663 106.53C93.761 106.678 94.018 106.748 94.3451 106.748C94.6721 106.748 94.9369 106.678 95.1004 106.545C95.2717 106.405 95.373 106.241 95.4119 106.039C95.4431 105.837 95.4664 105.509 95.4664 105.042V101.803H96.6501V104.879C96.6501 105.58 96.6189 106.078 96.5566 106.366C96.4943 106.654 96.3775 106.903 96.2062 107.098C96.0349 107.301 95.8091 107.456 95.5209 107.573C95.2328 107.69 94.859 107.752 94.3918 107.752C93.8311 107.752 93.4106 107.69 93.1225 107.558C92.8343 107.425 92.6085 107.262 92.4372 107.051C92.2659 106.841 92.1569 106.631 92.1023 106.405C92.0245 106.07 91.9855 105.572 91.9855 104.918V101.795L91.9777 101.803Z" fill="#034EA2"/>
<path d="M101.735 107.651H100.614V105.486C100.614 105.027 100.59 104.731 100.544 104.598C100.497 104.466 100.419 104.357 100.31 104.287C100.201 104.217 100.069 104.178 99.9207 104.178C99.726 104.178 99.5547 104.232 99.399 104.341C99.2432 104.45 99.142 104.591 99.0797 104.762C99.0252 104.941 98.994 105.26 98.994 105.735V107.659H97.8727V103.423H98.9162V104.045C99.2899 103.563 99.7494 103.329 100.31 103.329C100.559 103.329 100.785 103.376 100.988 103.461C101.19 103.547 101.346 103.664 101.455 103.804C101.564 103.944 101.634 104.1 101.673 104.279C101.712 104.458 101.735 104.707 101.735 105.034V107.667V107.651Z" fill="#034EA2"/>
<path d="M102.872 107.651V103.415H103.993V107.651H102.872ZM102.872 102.838V101.803H103.993V102.838H102.872Z" fill="#034EA2"/>
<path d="M106.041 105.533C106.041 105.953 106.143 106.273 106.337 106.498C106.54 106.724 106.781 106.833 107.077 106.833C107.373 106.833 107.614 106.724 107.817 106.498C108.012 106.273 108.113 105.953 108.113 105.525C108.113 105.097 108.012 104.793 107.817 104.567C107.622 104.341 107.373 104.232 107.077 104.232C106.781 104.232 106.54 104.341 106.337 104.567C106.135 104.793 106.041 105.112 106.041 105.533ZM104.889 105.471C104.889 105.097 104.982 104.739 105.162 104.388C105.348 104.038 105.605 103.773 105.94 103.586C106.275 103.399 106.657 103.313 107.069 103.313C107.708 103.313 108.237 103.524 108.65 103.936C109.063 104.357 109.265 104.879 109.265 105.517C109.265 106.156 109.055 106.693 108.642 107.114C108.23 107.534 107.708 107.744 107.077 107.744C106.688 107.744 106.322 107.659 105.964 107.48C105.613 107.301 105.341 107.044 105.162 106.709C104.975 106.366 104.889 105.953 104.889 105.471Z" fill="#034EA2"/>
<path d="M114 107.651H112.879V105.486C112.879 105.027 112.855 104.731 112.809 104.598C112.762 104.466 112.684 104.357 112.575 104.287C112.466 104.217 112.334 104.178 112.186 104.178C111.991 104.178 111.82 104.232 111.664 104.341C111.508 104.45 111.407 104.591 111.345 104.762C111.29 104.941 111.259 105.26 111.259 105.735V107.659H110.138V103.423H111.181V104.045C111.547 103.563 112.014 103.329 112.575 103.329C112.824 103.329 113.05 103.376 113.252 103.461C113.455 103.547 113.611 103.664 113.72 103.804C113.829 103.944 113.899 104.1 113.938 104.279C113.977 104.458 114 104.707 114 105.034V107.667V107.651Z" fill="#034EA2"/>
</svg>
