<?xml version="1.0" encoding="UTF-8"?>
<svg id="Layer_2" data-name="Layer 2" xmlns="http://www.w3.org/2000/svg" xmlns:xlink="http://www.w3.org/1999/xlink" viewBox="0 0 1630.74 638.19">
  <defs>
    <style>
      .cls-1 {
        fill: url(#linear-gradient-2);
      }

      .cls-2 {
        fill: #ea2e02;
      }

      .cls-3 {
        fill: none;
      }

      .cls-4 {
        fill: url(#linear-gradient-4);
      }

      .cls-5 {
        fill: url(#linear-gradient-3);
      }

      .cls-6 {
        fill: url(#linear-gradient-5);
      }

      .cls-7 {
        fill: url(#linear-gradient-7);
      }

      .cls-8 {
        fill: url(#linear-gradient-6);
      }

      .cls-9 {
        fill: url(#linear-gradient);
      }
    </style>
    <linearGradient id="linear-gradient" x1="207.34" y1="192.68" x2="313.64" y2="313.69" gradientUnits="userSpaceOnUse">
      <stop offset="0" stop-color="#ea2e02" stop-opacity=".15"/>
      <stop offset=".66" stop-color="#ea2e02"/>
    </linearGradient>
    <linearGradient id="linear-gradient-2" x1="609.3" y1="432.46" x2="517.74" y2="343.51" gradientUnits="userSpaceOnUse">
      <stop offset="0" stop-color="#ea2e02" stop-opacity=".15"/>
      <stop offset="0" stop-color="#ea2e02" stop-opacity=".17"/>
      <stop offset=".17" stop-color="#ea2e02" stop-opacity=".46"/>
      <stop offset=".31" stop-color="#ea2e02" stop-opacity=".69"/>
      <stop offset=".43" stop-color="#ea2e02" stop-opacity=".86"/>
      <stop offset=".53" stop-color="#ea2e02" stop-opacity=".96"/>
      <stop offset=".59" stop-color="#ea2e02"/>
    </linearGradient>
    <linearGradient id="linear-gradient-3" x1="696.04" y1="286.46" x2="634.76" y2="410.48" gradientUnits="userSpaceOnUse">
      <stop offset="0" stop-color="#ea2e02" stop-opacity=".15"/>
      <stop offset=".01" stop-color="#ea2e02" stop-opacity=".17"/>
      <stop offset=".21" stop-color="#ea2e02" stop-opacity=".46"/>
      <stop offset=".39" stop-color="#ea2e02" stop-opacity=".69"/>
      <stop offset=".54" stop-color="#ea2e02" stop-opacity=".86"/>
      <stop offset=".66" stop-color="#ea2e02" stop-opacity=".96"/>
      <stop offset=".74" stop-color="#ea2e02"/>
    </linearGradient>
    <linearGradient id="linear-gradient-4" x1="993.53" y1="323.1" x2="1009.15" y2="167.34" gradientUnits="userSpaceOnUse">
      <stop offset="0" stop-color="#ea2e02" stop-opacity=".05"/>
      <stop offset=".06" stop-color="#ea2e02" stop-opacity=".17"/>
      <stop offset=".21" stop-color="#ea2e02" stop-opacity=".46"/>
      <stop offset=".35" stop-color="#ea2e02" stop-opacity=".69"/>
      <stop offset=".47" stop-color="#ea2e02" stop-opacity=".86"/>
      <stop offset=".57" stop-color="#ea2e02" stop-opacity=".96"/>
      <stop offset=".63" stop-color="#ea2e02"/>
    </linearGradient>
    <linearGradient id="linear-gradient-5" x1="1059.49" y1="180.42" x2="1205.08" y2="278.41" gradientUnits="userSpaceOnUse">
      <stop offset="0" stop-color="#ea2e02" stop-opacity=".05"/>
      <stop offset=".06" stop-color="#ea2e02" stop-opacity=".17"/>
      <stop offset=".21" stop-color="#ea2e02" stop-opacity=".46"/>
      <stop offset=".35" stop-color="#ea2e02" stop-opacity=".69"/>
      <stop offset=".47" stop-color="#ea2e02" stop-opacity=".86"/>
      <stop offset=".57" stop-color="#ea2e02" stop-opacity=".96"/>
      <stop offset=".63" stop-color="#ea2e02"/>
    </linearGradient>
    <linearGradient id="linear-gradient-6" x1="1373.36" y1="448.56" x2="1497.95" y2="308.23" gradientUnits="userSpaceOnUse">
      <stop offset="0" stop-color="#ea2e02" stop-opacity=".05"/>
      <stop offset=".06" stop-color="#ea2e02" stop-opacity=".17"/>
      <stop offset=".21" stop-color="#ea2e02" stop-opacity=".46"/>
      <stop offset=".35" stop-color="#ea2e02" stop-opacity=".69"/>
      <stop offset=".47" stop-color="#ea2e02" stop-opacity=".86"/>
      <stop offset=".57" stop-color="#ea2e02" stop-opacity=".96"/>
      <stop offset=".63" stop-color="#ea2e02"/>
    </linearGradient>
    <linearGradient id="linear-gradient-7" x1="1335.79" y1="278.43" x2="1210.77" y2="215.89" gradientUnits="userSpaceOnUse">
      <stop offset="0" stop-color="#ea2e02" stop-opacity=".15"/>
      <stop offset=".01" stop-color="#ea2e02" stop-opacity=".17"/>
      <stop offset=".18" stop-color="#ea2e02" stop-opacity=".46"/>
      <stop offset=".33" stop-color="#ea2e02" stop-opacity=".69"/>
      <stop offset=".46" stop-color="#ea2e02" stop-opacity=".86"/>
      <stop offset=".56" stop-color="#ea2e02" stop-opacity=".96"/>
      <stop offset=".63" stop-color="#ea2e02"/>
    </linearGradient>
  </defs>
  <g id="Layer_10" data-name="Layer 10">
    <g>
      <g>
        <path class="cls-2" d="M898.66,150.23h-127.94c-6.15,0-11.14,4.99-11.14,11.14v34.2c0,6.15,4.99,11.14,11.14,11.14h24.58c6.15,0,11.14,4.99,11.14,11.14v202.46c0,6.15-4.99,11.14-11.14,11.14h-24.58c-6.15,0-11.14,4.99-11.14,11.14v34.2c0,6.15,4.99,11.14,11.14,11.14h127.94c6.15,0,11.14-4.99,11.14-11.14v-34.2c0-6.15-4.99-11.14-11.14-11.14h-24.58c-6.15,0-11.14-4.99-11.14-11.14v-202.46c0-6.15,4.99-11.14,11.14-11.14h24.58c6.15,0,11.14-4.99,11.14-11.14v-34.2c0-6.15-4.99-11.14-11.14-11.14Z"/>
        <g>
          <path class="cls-9" d="M340.22,388.72c-3.03-.97-5.74-2.61-8.25-4.95-9.36-8.73-20.49-31.43-20.38-89.97.07-36.13.18-100.64-57.99-114.83v16.62c0,2.9-1.12,5.53-2.93,7.51,30.65,9.19,36.98,40.11,36.88,90.65-.1,54.71,9.06,89.9,28.01,107.59,6.45,6.02,13.87,9.87,22.16,11.54v-17.14c0-2.66.94-5.1,2.49-7.02Z"/>
          <path class="cls-2" d="M429.94,150.23h-34.2c-6.15,0-11.14,4.99-11.14,11.14v212.07c0,6.15-4.99,11.14-11.14,11.14h-24.58c-3.49,0-6.61,1.61-8.65,4.12-1.56,1.92-2.49,4.36-2.49,7.02v34.2c0,6.16,4.99,11.14,11.14,11.14h24.58c6.15,0,11.14,4.99,11.14,11.14v24.58c0,6.15,4.99,11.14,11.14,11.14h34.2c6.15,0,11.14-4.99,11.14-11.14V161.38c0-6.15-4.99-11.14-11.14-11.14Z"/>
          <path class="cls-2" d="M242.45,150.23h-81.07c-6.15,0-11.14,4.99-11.14,11.14v315.44c0,6.15,4.99,11.14,11.14,11.14h34.2c6.15,0,11.14-4.99,11.14-11.14V217.87c0-6.15,4.99-11.14,11.14-11.14h24.58c3.26,0,6.18-1.41,8.22-3.63,1.81-1.98,2.93-4.61,2.93-7.51v-34.2c0-6.15-4.99-11.14-11.14-11.14Z"/>
        </g>
        <g>
          <path class="cls-1" d="M583.22,431.47h9.19l-69.43-131h-27.21l76.3,143.96v-1.82c0-6.15,4.99-11.14,11.14-11.14Z"/>
          <path class="cls-5" d="M608.61,431.47h8.82c6.15,0,11.14,4.99,11.14,11.14v2.54l76.35-144.68h-27.18l-69.13,131Z"/>
          <g>
            <path class="cls-2" d="M523.68,150.23h-34.2c-6.15,0-11.14,4.99-11.14,11.14v127.95c0,6.15,4.99,11.14,11.14,11.14h34.2c6.15,0,11.14-4.99,11.14-11.14v-127.95c0-6.15-4.99-11.14-11.14-11.14Z"/>
            <path class="cls-2" d="M617.42,431.47h-34.2c-6.15,0-11.14,4.99-11.14,11.14v34.2c0,6.15,4.99,11.14,11.14,11.14h34.2c6.15,0,11.14-4.99,11.14-11.14v-34.2c0-6.15-4.99-11.14-11.14-11.14Z"/>
            <path class="cls-2" d="M711.17,150.23h-34.2c-6.15,0-11.14,4.99-11.14,11.14v127.95c0,6.15,4.99,11.14,11.14,11.14h34.2c6.15,0,11.14-4.99,11.14-11.14v-127.95c0-6.15-4.99-11.14-11.14-11.14Z"/>
          </g>
        </g>
        <g>
          <path class="cls-4" d="M1004.04,219.15c9.5-17.2,21.85-26.7,36.77-28.36v-24.16c-45.4,3.22-75.89,52.12-77.19,124.22h24.05c.59-28.22,6.34-53.54,16.37-71.7Z"/>
          <path class="cls-6" d="M1133.75,219.19c10.21,18.32,16.07,43.62,16.68,71.66h24.04c-.63-32.11-7.57-61.56-19.72-83.36-13.81-24.78-34.08-39.13-57.46-40.85v24.16c18.11,2.17,29.74,16.35,36.46,28.4Z"/>
          <g>
            <path class="cls-2" d="M1179.89,290.85h-34.2c-6.15,0-11.14,4.99-11.14,11.14v24.58c0,6.15-4.99,11.14-11.14,11.14h-108.71c-6.15,0-11.14-4.99-11.14-11.14v-24.58c0-6.15-4.99-11.14-11.14-11.14h-34.2c-6.15,0-11.14,4.99-11.14,11.14v174.82c0,6.15,4.99,11.14,11.14,11.14h34.2c6.15,0,11.14-4.99,11.14-11.14v-71.46c0-6.15,4.99-11.14,11.14-11.14h108.71c6.15,0,11.14,4.99,11.14,11.14v71.46c0,6.15,4.99,11.14,11.14,11.14h34.2c6.15,0,11.14-4.99,11.14-11.14v-174.82c0-6.15-4.99-11.14-11.14-11.14Z"/>
            <path class="cls-2" d="M1051.95,253.59h34.2c6.15,0,11.14-4.99,11.14-11.14v-81.07c0-6.15-4.99-11.14-11.14-11.14h-34.2c-6.16,0-11.14,4.99-11.14,11.14v81.07c0,6.16,4.99,11.14,11.14,11.14Z"/>
          </g>
        </g>
        <g>
          <path class="cls-8" d="M1457.55,329.34c-12.35-11.9-29.08-19.24-49.77-21.85v24.26c32.74,5.07,48.68,24.57,48.68,59.42,0,21.59-6.04,38.86-17.02,48.64-4.18,3.72-8.93,6.17-14.06,7.3v24.34c11.05-1.34,21.42-6.01,30.05-13.7,16.16-14.4,25.06-38.05,25.06-66.59,0-26.35-7.72-47.15-22.95-61.83Z"/>
          <path class="cls-7" d="M1245.12,246.86c0-28.49,15.76-46.19,30.04-53.07v-25.57c-11.17,3-22.35,9.74-31.48,19.3-10.31,10.78-22.6,29.82-22.6,59.35,0,26.34,7.68,47.13,22.84,61.81,12.51,12.12,29.55,19.51,50.67,22v-24.24c-33.27-4.81-49.47-24.34-49.47-59.58Z"/>
          <g>
            <path class="cls-2" d="M1414.25,431.47h-118.33c-6.15,0-11.14-4.99-11.14-11.14v-24.58c0-6.15-4.99-11.14-11.14-11.14h-34.2c-6.15,0-11.14,4.99-11.14,11.14v34.2c0,6.16,4.99,11.14,11.14,11.14h24.58c6.15,0,11.14,4.99,11.14,11.14v24.58c0,6.15,4.99,11.14,11.14,11.14h127.94c6.15,0,11.14-4.99,11.14-11.14v-34.2c0-6.15-4.99-11.14-11.14-11.14Z"/>
            <path class="cls-2" d="M1305.73,347.34h90.91c6.15,0,11.14-4.99,11.14-11.14v-34.2c0-6.15-4.99-11.14-11.14-11.14h-90.91c-6.15,0-11.14,4.99-11.14,11.14v34.2c0,6.15,4.99,11.14,11.14,11.14Z"/>
            <path class="cls-2" d="M1461.12,197.1h-24.58c-6.15,0-11.14-4.99-11.14-11.14v-24.58c0-6.15-4.99-11.14-11.14-11.14h-127.95c-6.15,0-11.14,4.99-11.14,11.14v34.2c0,6.15,4.99,11.14,11.14,11.14h118.33c6.15,0,11.14,4.99,11.14,11.14v24.58c0,6.16,4.99,11.14,11.14,11.14h34.2c6.15,0,11.14-4.99,11.14-11.14v-34.2c0-6.15-4.99-11.14-11.14-11.14Z"/>
          </g>
        </g>
      </g>
      <rect class="cls-3" x="0" width="1630.74" height="638.19"/>
    </g>
  </g>
</svg>